<svg id="组_5" data-name="组 5" xmlns="http://www.w3.org/2000/svg" width="143" height="20" viewBox="0 0 143 20">
  <defs>
    <style>
      .cls-1 {
        fill: #1f1f1f;
      }

      .cls-1, .cls-2 {
        fill-rule: evenodd;
      }

      .cls-2 {
        fill: #e61e1e;
      }
    </style>
  </defs>
  <path id="PowerVision" class="cls-1" d="M359.991,37.659h3.369V29.608h2.407a18.166,18.166,0,0,0,2.875-.22,6.8,6.8,0,0,0,2.42-.838,4.472,4.472,0,0,0,1.659-1.745,6.2,6.2,0,0,0,.615-2.968,5.741,5.741,0,0,0-.575-2.706,4.687,4.687,0,0,0-1.538-1.731,6.416,6.416,0,0,0-2.233-.921,12.452,12.452,0,0,0-2.634-.275h-6.365V37.659Zm3.369-11.018V21.173h2.407a12.322,12.322,0,0,1,1.391.082,3.991,3.991,0,0,1,1.31.371,2.505,2.505,0,0,1,.963.825,2.473,2.473,0,0,1,.375,1.442,2.51,2.51,0,0,1-.415,1.539,2.547,2.547,0,0,1-1.07.825,4.5,4.5,0,0,1-1.431.33q-0.775.055-1.5,0.055H363.36Zm30.113,11.018h3.316l2.7-9.013h0.053l3.049,9.013h3.183l4.359-13.189H406.9L404.223,33.7H404.17l-2.781-9.232h-3.477L395.318,33.7h-0.054l-2.781-9.232h-3.476Zm30.112-5.441V31.311a9.747,9.747,0,0,0-.441-3.064,6.474,6.474,0,0,0-1.23-2.239,5.258,5.258,0,0,0-1.9-1.388,6.1,6.1,0,0,0-2.447-.48,7.522,7.522,0,0,0-2.728.494,6.5,6.5,0,0,0-2.219,1.4,6.645,6.645,0,0,0-1.485,2.184,7.652,7.652,0,0,0,0,5.687,6.645,6.645,0,0,0,1.485,2.184,6.5,6.5,0,0,0,2.219,1.4,7.522,7.522,0,0,0,2.728.495,7.245,7.245,0,0,0,2.915-.6A6.545,6.545,0,0,0,423,35.351l-2.3-1.786a5.643,5.643,0,0,1-1.431,1.278,3.749,3.749,0,0,1-2.019.508,3.458,3.458,0,0,1-2.327-.825,3.385,3.385,0,0,1-1.123-2.308h9.788ZM413.8,29.745a3.845,3.845,0,0,1,1.03-2.28,3.071,3.071,0,0,1,2.286-.852,3.256,3.256,0,0,1,2.38.838,3.149,3.149,0,0,1,.883,2.294H413.8Zm11.981,7.913h3.209V30.6a4.271,4.271,0,0,1,.12-0.825,3.262,3.262,0,0,1,1.525-2.074,3.372,3.372,0,0,1,1.805-.426,4.4,4.4,0,0,1,.762.069c0.258,0.046.522,0.106,0.789,0.179V24.332q-0.294-.082-0.575-0.137a2.989,2.989,0,0,0-.575-0.055,4.028,4.028,0,0,0-3.8,2.418h-0.053V24.47h-3.209V37.659Zm15.136,0h2.915l7.649-19.453h-3.637l-5.322,14.7-5.162-14.7H433.48Zm11.553,0h3.209V24.47h-3.209V37.659Zm0.121-16.28a1.945,1.945,0,0,0,1.457.591,2.089,2.089,0,0,0,1.484-.564,1.964,1.964,0,0,0,0-2.83,2.091,2.091,0,0,0-1.484-.564,1.947,1.947,0,0,0-1.457.591A1.962,1.962,0,0,0,452.588,21.379Zm14.962,4.767a4.165,4.165,0,0,0-2.032-1.553,7.379,7.379,0,0,0-4.44-.206,4.969,4.969,0,0,0-1.658.769,3.838,3.838,0,0,0-1.6,3.242,3.363,3.363,0,0,0,.508,1.978,3.526,3.526,0,0,0,1.283,1.112,6.351,6.351,0,0,0,1.672.577q0.9,0.179,1.671.384a4.462,4.462,0,0,1,1.284.536A1.129,1.129,0,0,1,464.742,34a1.154,1.154,0,0,1-.2.673,1.672,1.672,0,0,1-.522.481,2.3,2.3,0,0,1-.695.275,3.355,3.355,0,0,1-.722.083,3.136,3.136,0,0,1-1.725-.453,6.066,6.066,0,0,1-1.324-1.168l-2.139,2.06a5.225,5.225,0,0,0,2.246,1.594,8.3,8.3,0,0,0,2.754.44,9.115,9.115,0,0,0,1.979-.22,5.607,5.607,0,0,0,1.779-.715,3.95,3.95,0,0,0,1.284-1.3,3.765,3.765,0,0,0,.494-1.992,3.551,3.551,0,0,0-.508-2.033,3.706,3.706,0,0,0-1.283-1.168,6.483,6.483,0,0,0-1.672-.632q-0.9-.206-1.671-0.4a5.471,5.471,0,0,1-1.284-.467,0.927,0.927,0,0,1-.508-0.879,1.126,1.126,0,0,1,.615-1.072,2.631,2.631,0,0,1,1.257-.33,2.918,2.918,0,0,1,2.514,1.346Zm2.139,11.513H472.9V24.47h-3.209V37.659Zm0.12-16.28a1.949,1.949,0,0,0,1.458.591,2.089,2.089,0,0,0,1.484-.564,1.964,1.964,0,0,0,0-2.83,2.091,2.091,0,0,0-1.484-.564,1.95,1.95,0,0,0-1.458.591A1.964,1.964,0,0,0,469.809,21.379Zm5.884,12.529a6.642,6.642,0,0,0,1.484,2.184,6.514,6.514,0,0,0,2.22,1.4,7.765,7.765,0,0,0,5.455,0,6.514,6.514,0,0,0,2.22-1.4,6.642,6.642,0,0,0,1.484-2.184,7.639,7.639,0,0,0,0-5.687,6.642,6.642,0,0,0-1.484-2.184,6.514,6.514,0,0,0-2.22-1.4,7.772,7.772,0,0,0-5.455,0,6.514,6.514,0,0,0-2.22,1.4,6.642,6.642,0,0,0-1.484,2.184A7.652,7.652,0,0,0,475.693,33.908Zm2.915-4.327a3.715,3.715,0,0,1,1.939-2.143,3.941,3.941,0,0,1,3.156,0,3.709,3.709,0,0,1,1.938,2.143,4.46,4.46,0,0,1,0,2.967,3.709,3.709,0,0,1-1.938,2.143,3.941,3.941,0,0,1-3.156,0,3.715,3.715,0,0,1-1.939-2.143A4.46,4.46,0,0,1,478.608,29.581ZM491.3,37.659h3.209v-7.2a4.907,4.907,0,0,1,.161-1.264,3,3,0,0,1,.521-1.072,2.611,2.611,0,0,1,.91-0.741,2.99,2.99,0,0,1,1.35-.275,1.992,1.992,0,0,1,1.31.4,2.36,2.36,0,0,1,.709.989,4.526,4.526,0,0,1,.281,1.264q0.054,0.673.053,1.223v6.677h3.21V29.333a7.812,7.812,0,0,0-.241-1.95,4.421,4.421,0,0,0-.8-1.649,4.152,4.152,0,0,0-1.458-1.154,4.917,4.917,0,0,0-2.179-.439,4.036,4.036,0,0,0-2.541.728,4.6,4.6,0,0,0-1.391,1.717h-0.053V24.47H491.3V37.659Z" transform="translate(-360 -18)"/>
  <path id="PowerVision_拷贝" data-name="PowerVision 拷贝" class="cls-2" d="M375.141,33.908a6.642,6.642,0,0,0,1.484,2.184,6.514,6.514,0,0,0,2.22,1.4,7.765,7.765,0,0,0,5.455,0,6.514,6.514,0,0,0,2.22-1.4A6.658,6.658,0,0,0,388,33.908a7.652,7.652,0,0,0,0-5.687,6.658,6.658,0,0,0-1.484-2.184,6.514,6.514,0,0,0-2.22-1.4,7.772,7.772,0,0,0-5.455,0,6.514,6.514,0,0,0-2.22,1.4,6.642,6.642,0,0,0-1.484,2.184A7.639,7.639,0,0,0,375.141,33.908Zm2.915-4.327a3.709,3.709,0,0,1,1.938-2.143,3.941,3.941,0,0,1,3.156,0,3.715,3.715,0,0,1,1.939,2.143,4.46,4.46,0,0,1,0,2.967,3.715,3.715,0,0,1-1.939,2.143,3.941,3.941,0,0,1-3.156,0,3.709,3.709,0,0,1-1.938-2.143A4.46,4.46,0,0,1,378.056,29.581Z" transform="translate(-360 -18)"/>
</svg>
