<svg id="隔离模式" xmlns="http://www.w3.org/2000/svg" viewBox="0 0 199.99999 134"><defs><style>.cls-1{fill:#dd342c;}.cls-2{fill:#ffde00;}</style></defs><title>中国国旗</title><path class="cls-1" d="M1164.67528,606.6709h-166a16.99967,16.99967,0,0,0-17,17v100a17.00024,17.00024,0,0,0,17,17h166a17.00018,17.00018,0,0,0,17-17v-100A16.9996,16.9996,0,0,0,1164.67528,606.6709Zm-138.3886,49.6982-11.8555-8.6152-11.8574,8.6152,4.5273-13.9384-11.8574-8.6153h14.6582l4.5293-13.9394,4.5293,13.9394h14.6562l-11.8574,8.6153Zm23.12691,17.0879-2.50581-4.042-4.4747,1.2266,2.9512-3.6875-2.707-4.3682,3.6347,1.4834,0.9063,0.3418,3.1348-3.7099-0.0039.0468,0.0761-.0937-0.2324,5,4.3242,1.7666-4.7441,1.1641Zm0.57618-51.8955-0.4297,4.8672-2.5137-4.1894-4.7597,1.0966,3.207-3.6865-2.5137-4.1885,4.4961,1.9121,3.207-3.6855-0.4296,4.8672,4.496,1.9121Zm8.55082,5.7256,3.40038,3.5068,4.3867-2.1523-2.2832,4.3203,3.4004,3.5059-4.8125-.8379-2.2832,4.3193-0.6914-4.8359-4.8145-.8379,4.3867-2.1514Zm7.10539,31.5059-4.0547-2.7285-3.84569,3.0117,1.34179-4.6973-4.0527-2.7285,4.8828-.1758,1.3418-4.6973,1.6758,4.5889,4.8828-.1748-3.8476,3.0127Z" transform="translate(-981.67529 -606.6709)"/><polygon class="cls-2" points="37.285 27.145 32.756 13.205 28.227 27.145 13.568 27.145 25.426 35.76 20.898 49.698 32.756 41.083 44.611 49.698 40.084 35.76 51.941 27.145 37.285 27.145"/><polygon class="cls-2" points="69.008 7.017 65.801 10.702 61.305 8.79 63.818 12.979 60.611 16.665 65.371 15.568 67.885 19.758 68.314 14.891 73.074 13.796 68.578 11.884 69.008 7.017"/><polygon class="cls-2" points="77.982 28.442 78.674 33.278 80.957 28.959 85.77 29.797 82.369 26.291 84.652 21.971 80.266 24.123 76.865 20.616 77.555 25.453 73.168 27.605 77.982 28.442"/><polygon class="cls-2" points="86.143 44.52 81.26 44.695 79.584 40.106 78.242 44.804 73.359 44.98 77.412 47.708 76.07 52.405 79.916 49.394 83.971 52.122 82.295 47.533 86.143 44.52"/><polygon class="cls-2" points="68.75 53.983 68.674 54.077 68.678 54.03 65.543 57.74 64.637 57.398 61.002 55.915 63.709 60.283 60.758 63.971 65.232 62.744 67.738 66.786 68.098 61.914 72.842 60.75 68.518 58.983 68.75 53.983"/></svg>