<svg id="隔离模式" xmlns="http://www.w3.org/2000/svg" viewBox="0 0 200 134"><defs><style>.cls-1{fill:#fff;}.cls-2{fill:#bf2033;}.cls-3{fill:#213065;}</style></defs><title>美国国旗</title><polygon class="cls-1" points="0 72.162 0 82.478 200 82.478 200 72.162 100.951 72.162 0 72.162"/><rect class="cls-1" x="100.9512" y="51.5205" width="99.0488" height="10.3213"/><rect class="cls-1" y="92.7989" width="200" height="10.3183"/><path class="cls-1" d="M1729.4268,1158.5449a16.95339,16.95339,0,0,0,1.4004,6.753h197.1973a16.922,16.922,0,0,0,1.4023-6.753v-3.5635h-200v3.5635Z" transform="translate(-1729.4268 -1041.5449)"/><path class="cls-1" d="M1928.0245,1051.793H1830.378v10.3174h99.0488v-3.5655A16.91671,16.91671,0,0,0,1928.0245,1051.793Z" transform="translate(-1729.4268 -1041.5449)"/><rect class="cls-1" x="100.9512" y="30.8858" width="99.0488" height="10.3183"/><path class="cls-2" d="M1912.4268,1041.5449H1830.378v10.2481h97.6465A16.99671,16.99671,0,0,0,1912.4268,1041.5449Z" transform="translate(-1729.4268 -1041.5449)"/><rect class="cls-2" x="100.9512" y="20.5655" width="99.0488" height="10.3203"/><rect class="cls-2" x="100.9512" y="41.2041" width="99.0488" height="10.3164"/><rect class="cls-2" x="100.9512" y="61.8418" width="99.0488" height="10.3203"/><rect class="cls-2" y="82.4785" width="200" height="10.3204"/><rect class="cls-2" y="103.1172" width="200" height="10.3193"/><path class="cls-2" d="M1746.4268,1175.5449h166a16.99748,16.99748,0,0,0,15.5977-10.247H1730.8272A17.00016,17.00016,0,0,0,1746.4268,1175.5449Z" transform="translate(-1729.4268 -1041.5449)"/><path class="cls-3" d="M1830.378,1103.3867v-61.8418h-83.9512a16.94216,16.94216,0,0,0-12.7598,5.792h2.5528l0.9297-2.8535,0.9257,2.8535h3.002l-2.4297,1.7656,0.9297,2.8545-2.4297-1.7656-2.4297,1.7656,0.9297-2.8535-2.1602-1.5693a16.9194,16.9194,0,0,0-4.0605,11.0107v55.1621H1830.378v-10.3203Zm-6.1758-7.8994-2.4277-1.7637-2.4278,1.7637,0.9258-2.8525-2.4258-1.7647h3l0.9297-2.8555,0.9258,2.8555h3l-2.4277,1.7637Zm-78.1524-.6455,0.9278,2.8564h3.0039l-2.4297,1.7647,0.9277,2.8555-2.4277-1.7637-2.4277,1.7637,0.9257-2.8545-2.4277-1.7657h3Zm6.6153-2.207-2.4278-1.7647h3.002l0.9258-2.8555,0.9277,2.8555h3.0039l-2.4297,1.7647,0.9297,2.8525-2.4316-1.7637-2.4258,1.7637Zm-2.543-30.8077h3l0.9277-2.8574,0.9278,2.8574h3.0019l-2.4297,1.7627,0.9297,2.8565-2.4297-1.7656-2.4296,1.7656,0.9277-2.8565Zm16.9004,0h3.002l0.9277-2.8574,0.9277,2.8574h3.0039l-2.4297,1.7618,0.9278,2.8574-2.4297-1.7656-2.4277,1.7656,0.9257-2.8555Zm16.9023,0h3l0.9278-2.8574,0.9277,2.8574h3.0039l-2.4297,1.7627,0.9278,2.8565-2.4278-1.7656-2.4277,1.7656,0.9258-2.8555Zm16.9004,0h3.002l0.9277-2.8574,0.9278,2.8574h3.0019l-2.4277,1.7637,0.9277,2.8555-2.4297-1.7656-2.4277,1.7656,0.9277-2.8555Zm-0.4746,21.7989-2.4277,1.7656,0.9277,2.8564-2.4297-1.7666-2.4277,1.7666,0.9258-2.8593-2.4258-1.7627h3l0.9297-2.8545,0.9258,2.8545h3.0019Zm-1.164,18.6924-2.4297-1.7647-2.4278,1.7647,0.9278-2.8555-2.4297-1.7647h3.0019l0.9297-2.8564,0.9278,2.8564h3l-2.4297,1.7657Zm-15.7383-18.6924-2.4278,1.7656,0.9278,2.8564-2.4297-1.7675-2.4277,1.7675,0.9257-2.8564-2.4257-1.7656h3l0.9277-2.8545,0.9277,2.8545h3.002Zm-1.1641,18.6924-2.4297-1.7647-2.4277,1.7647,0.9277-2.8555-2.4277-1.7647h3l0.9297-2.8564,0.9277,2.8564h3.002l-2.4317,1.7657Zm-6.6074-32.6905h3.0019l0.9278-2.8564,0.9277,2.8564h3.002l-2.4317,1.7647,0.9297,2.8535-2.4297-1.7647-2.4258,1.7647,0.9258-2.8535Zm14.8086,11.8623-2.4277-1.7627-2.4278,1.7627,0.9258-2.8545-2.4277-1.7607h3.0019l0.9297-2.8584,0.9258,2.8584h3l-2.4258,1.7617Zm-19.332-7.4736,0.9296,2.8584h3.002l-2.4297,1.7627,0.9277,2.8525-2.4277-1.7636-2.4277,1.7636,0.9258-2.8535-2.4278-1.7617h3Zm36.2363,7.4736-2.4297-1.7636-2.4277,1.7636,0.9257-2.8535-2.4296-1.7617h3.0019l0.9297-2.8584,0.9277,2.8584h3l-2.4277,1.7617Zm-8.4512-7.2441-2.4297-1.7647-2.4297,1.7647,0.9278-2.8545-2.4278-1.7637h3.0039l0.9258-2.8564,0.9258,2.8564h3.0039l-2.4297,1.7637Zm-40.1621-4.6182h3l0.9297-2.8564,0.9258,2.8564h3.0019l-2.4277,1.7637,0.9277,2.8545-2.4277-1.7637-2.4277,1.7637,0.9257-2.8535Zm-4.5215,4.3887,0.9278,2.8584h3.0019l-2.4297,1.7617,0.9278,2.8535-2.4297-1.7627-2.4278,1.7627,0.9258-2.8545-2.4258-1.7607h3Zm8.3594,6.7549,0.9297,2.8545h3.0019l-2.4277,1.7646,0.9277,2.8574-2.4277-1.7685-2.4297,1.7685,0.9297-2.8564-2.4297-1.7656h3Zm2.7656,21.5469-2.4277-1.7647-2.4277,1.7647,0.9277-2.8545-2.4297-1.7657h3.0039l0.9277-2.8564,0.9278,2.8564h3.0019l-2.4316,1.7657Zm4.1875-9.6827-2.4297-1.7656h3.002l0.9277-2.8555,0.9258,2.8555h3.0039l-2.4277,1.7627,0.9297,2.8545-2.4297-1.7637-2.4278,1.7637Zm16.9004-.0019-2.4277-1.7637h3l0.9297-2.8555,0.9277,2.8555h3.002l-2.4278,1.7647,0.9258,2.8525-2.4277-1.7637-2.4297,1.7637Zm16.9043,0.001-2.4297-1.7647h3l0.9297-2.8555,0.9258,2.8555h3.0039l-2.4297,1.7656,0.9277,2.8516-2.4277-1.7646-2.4277,1.7646Zm12.7168,9.6836-2.4297-1.7647-2.4277,1.7647,0.9258-2.8545-2.4278-1.7657h3.002l0.9277-2.8564,0.9278,2.8564h3l-2.4278,1.7647Zm1.1641-18.6924-2.4278,1.7656,0.9278,2.8564-2.4297-1.7675-2.4278,1.7675,0.9258-2.8574-2.4277-1.7646h3.0019l0.9297-2.8545,0.9258,2.8545h3.002Zm7.039-2.1358-2.4297-1.7636-2.4257,1.7636,0.9257-2.8525-2.4296-1.7627h3l0.9296-2.8584,0.9278,2.8584h3.0019l-2.4297,1.7617Zm-8.4531-7.2441-2.4277-1.7637-2.4297,1.7637,0.9277-2.8535-2.4297-1.7647h3.002l0.9297-2.8564,0.9258,2.8564h3.0039l-2.4278,1.7627Zm8.2481-7.7998-2.4297-1.7656-2.4258,1.7656,0.9258-2.8565-2.4258-1.7627h2.998l0.9297-2.8574,0.9278,2.8574h3l-2.4278,1.7637Zm-2.4278-21.9629,0.9258,2.8535h3.002l-2.4278,1.7666,0.9278,2.8535-2.4297-1.7646-2.4258,1.7646,0.9258-2.8545-2.4258-1.7656h2.998Zm-7.5254,10.0986h3.002l-2.4278,1.7627,0.9278,2.8545-2.4278-1.7637-2.4296,1.7637,0.9277-2.8535-2.4297-1.7637h3.0039l0.9277-2.8545Zm-9.3789-10.0986,0.9278,2.8535h3.0019l-2.4277,1.7666,0.9277,2.8535-2.4297-1.7656-2.4277,1.7656,0.9277-2.8535-2.4297-1.7666h3.002Zm-7.5234,10.0986h3.0039l-2.4297,1.7637,0.9277,2.8535-2.4297-1.7627-2.4257,1.7627,0.9257-2.8525-2.4277-1.7647h3.002l0.9277-2.8545Zm-9.3789-10.0986,0.9277,2.8535h3.0039l-2.4297,1.7656,0.9278,2.8545-2.4278-1.7646-2.4277,1.7646,0.9258-2.8535-2.4278-1.7666h3Zm-7.5235,10.0986h3.0039l-2.4296,1.7627,0.9296,2.8545-2.4296-1.7637-2.4258,1.7637,0.9258-2.8535-2.4297-1.7637h3.0019l0.9278-2.8545Zm-9.3769-10.0986,0.9258,2.8535h3.0058l-2.4297,1.7656,0.9278,2.8545-2.4297-1.7646-2.4277,1.7646,0.9257-2.8535-2.4277-1.7666h3.002Zm-7.5235,10.0986h3.002l-2.4297,1.7637,0.9297,2.8535-2.4297-1.7646-2.4277,1.7646,0.9277-2.8525-2.4297-1.7647h3.002l0.9277-2.8545Zm-9.3789-10.0986,0.9278,2.8535h3.0019l-2.4297,1.7656,0.9297,2.8545-2.4297-1.7646-2.4296,1.7646,0.9277-2.8545-2.4258-1.7656h3Zm-8.4511,7.2441,0.9258,2.8545h3.0019l-2.4277,1.7637,0.9277,2.8535-2.4277-1.7637-2.4278,1.7637,0.9278-2.8535-2.4317-1.7637h3.0039Zm-12.3809,10.0996h3l0.9317-2.8574,0.9277,2.8574h3l-2.4297,1.7627,0.9297,2.8565-2.4297-1.7666-2.4297,1.7666,0.9297-2.8555Zm8.6543,7.8008h3.002l0.9277-2.8564,0.9277,2.8564h3.002l-2.4278,1.7647,0.9278,2.8535-2.4297-1.7637-2.4277,1.7637,0.9277-2.8545Zm-2.0918,11.8623-2.4297-1.7646-2.4277,1.7646,0.9277-2.8525-2.4277-1.7627h3l0.9297-2.8584,0.9277,2.8584h3.002l-2.4297,1.7627Zm5.9356-.7187,0.9257,2.8545h3.002l-2.4277,1.7646,0.9257,2.8574-2.4277-1.7675-2.4277,1.7675,0.9277-2.8564-2.4277-1.7656h3.0019Zm-12.3809,10.0986h3.002l0.9277-2.8555,0.9277,2.8555h3l-2.4297,1.7647,0.9297,2.8525-2.4297-1.7646-2.4257,1.7646,0.9257-2.8516Zm6.6934,18.6895-2.4297-1.7617-2.4258,1.7617,0.9258-2.8526-2.4278-1.7636h3l0.9278-2.8545,0.9277,2.8545h3.002l-2.4278,1.7636Zm16.9023,0-2.4297-1.7627-2.4258,1.7627,0.9258-2.8526-2.4277-1.7636h3.0019l0.9258-2.8545,0.9277,2.8545h3.002l-2.4297,1.7646Zm16.9023,0-2.4296-1.7627-2.4278,1.7627,0.9278-2.8526-2.4297-1.7636h3.0019l0.9278-2.8545,0.9277,2.8545h3.0019l-2.4296,1.7646Zm16.9024,0-2.4297-1.7627-2.4277,1.7627,0.9277-2.8526-2.4297-1.7636h3.002l0.9297-2.8545,0.9257,2.8545h3.002l-2.4277,1.7646Zm16.9004,0-2.4278-1.7627-2.4277,1.7627,0.9277-2.8516-2.4277-1.7646h3l0.9277-2.8545,0.9278,2.8545h3l-2.4278,1.7636Zm16.9043,0-2.4297-1.7617-2.4277,1.7617,0.9257-2.8526-2.4277-1.7636h3.002l0.9277-2.8545,0.9258,2.8545h3.0039l-2.4297,1.7636Z" transform="translate(-1729.4268 -1041.5449)"/><path class="cls-1" d="M1734.7178,1051.957l2.4297-1.7656,2.4297,1.7656-0.9297-2.8545,2.4297-1.7656h-3.002l-0.9257-2.8535-0.9297,2.8535h-2.5528c-0.0586.0664-.1211,0.1289-0.1797,0.1973l2.1602,1.5693Z" transform="translate(-1729.4268 -1041.5449)"/><polygon class="cls-1" points="22.193 10.412 24.623 8.647 27.053 10.412 26.123 7.558 28.553 5.792 25.551 5.792 24.623 2.939 23.695 5.792 20.695 5.792 23.121 7.558 22.193 10.412"/><polygon class="cls-1" points="39.098 10.412 41.525 8.647 43.955 10.412 43.027 7.558 45.457 5.792 42.451 5.792 41.525 2.939 40.598 5.792 37.596 5.792 40.023 7.559 39.098 10.412"/><polygon class="cls-1" points="56 10.412 58.428 8.647 60.856 10.412 59.928 7.558 62.357 5.792 59.354 5.792 58.426 2.939 57.498 5.792 54.498 5.792 56.926 7.559 56 10.412"/><polygon class="cls-1" points="72.9 10.412 75.328 8.646 77.758 10.412 76.83 7.559 79.258 5.792 76.256 5.792 75.328 2.939 74.4 5.792 71.398 5.792 73.828 7.559 72.9 10.412"/><polygon class="cls-1" points="89.805 10.412 92.231 8.647 94.66 10.412 93.732 7.559 96.16 5.792 93.158 5.792 92.232 2.939 91.303 5.792 88.305 5.792 90.731 7.558 89.805 10.412"/><polygon class="cls-1" points="13.744 17.654 16.172 15.891 18.6 17.654 17.672 14.801 20.1 13.037 17.098 13.037 16.172 10.183 15.244 13.037 12.24 13.037 14.672 14.801 13.744 17.654"/><polygon class="cls-1" points="30.647 17.654 33.074 15.89 35.504 17.654 34.574 14.801 37.004 13.037 34.002 13.037 33.074 10.183 32.147 13.037 29.145 13.037 31.574 14.802 30.647 17.654"/><polygon class="cls-1" points="47.551 17.654 49.977 15.891 52.406 17.654 51.477 14.8 53.906 13.037 50.902 13.037 49.977 10.183 49.049 13.037 46.047 13.037 48.477 14.801 47.551 17.654"/><polygon class="cls-1" points="64.451 17.654 66.877 15.892 69.307 17.654 68.379 14.801 70.809 13.037 67.805 13.037 66.879 10.183 65.951 13.037 62.949 13.037 65.377 14.802 64.451 17.654"/><polygon class="cls-1" points="81.352 17.654 83.781 15.891 86.209 17.654 85.281 14.8 87.709 13.037 84.707 13.037 83.781 10.183 82.854 13.037 79.85 13.037 82.279 14.801 81.352 17.654"/><polygon class="cls-1" points="5.291 24.901 7.721 23.135 10.15 24.901 9.221 22.045 11.65 20.282 8.65 20.282 7.723 17.425 6.791 20.282 3.791 20.282 6.221 22.046 5.291 24.901"/><polygon class="cls-1" points="22.193 24.901 24.623 23.136 27.053 24.901 26.123 22.045 28.553 20.282 25.551 20.282 24.623 17.425 23.695 20.282 20.695 20.282 23.121 22.045 22.193 24.901"/><polygon class="cls-1" points="39.098 24.901 41.525 23.136 43.955 24.901 43.027 22.044 45.457 20.282 42.453 20.282 41.525 17.425 40.598 20.282 37.596 20.282 40.023 22.046 39.098 24.901"/><polygon class="cls-1" points="56 24.901 58.428 23.136 60.856 24.901 59.928 22.045 62.357 20.282 59.354 20.282 58.426 17.425 57.498 20.282 54.498 20.282 56.926 22.046 56 24.901"/><polygon class="cls-1" points="72.9 24.901 75.328 23.136 77.758 24.901 76.83 22.046 79.258 20.282 76.256 20.282 75.328 17.425 74.4 20.282 71.398 20.282 73.828 22.046 72.9 24.901"/><polygon class="cls-1" points="89.805 24.901 92.231 23.136 94.66 24.901 93.732 22.046 96.16 20.282 93.16 20.282 92.232 17.425 91.303 20.282 88.305 20.282 90.731 22.045 89.805 24.901"/><polygon class="cls-1" points="17.303 28.083 16.375 25.227 15.447 28.083 12.445 28.083 14.875 29.847 13.947 32.701 16.375 30.938 18.805 32.701 17.877 29.848 20.305 28.083 17.303 28.083"/><polygon class="cls-1" points="34.205 28.083 33.279 25.227 32.35 28.083 29.35 28.083 31.777 29.848 30.852 32.701 33.279 30.938 35.707 32.701 34.779 29.847 37.207 28.083 34.205 28.083"/><polygon class="cls-1" points="51.107 28.083 50.18 25.227 49.252 28.083 46.25 28.083 48.678 29.848 47.752 32.701 50.178 30.936 52.607 32.701 51.678 29.848 54.109 28.083 51.107 28.083"/><polygon class="cls-1" points="68.008 28.083 67.082 25.227 66.156 28.083 63.152 28.083 65.58 29.847 64.652 32.701 67.082 30.936 69.512 32.701 68.582 29.847 71.012 28.083 68.008 28.083"/><polygon class="cls-1" points="84.91 28.083 83.984 25.227 83.055 28.083 80.053 28.083 82.482 29.848 81.555 32.701 83.984 30.938 86.412 32.701 85.486 29.846 87.914 28.083 84.91 28.083"/><polygon class="cls-1" points="8.854 35.33 7.926 32.472 6.996 35.33 3.996 35.33 6.424 37.093 5.496 39.945 7.924 38.181 10.354 39.945 9.426 37.093 11.856 35.33 8.854 35.33"/><polygon class="cls-1" points="25.756 35.33 24.828 32.472 23.898 35.33 20.898 35.33 23.324 37.091 22.398 39.945 24.826 38.183 27.256 39.945 26.328 37.092 28.758 35.33 25.756 35.33"/><polygon class="cls-1" points="42.656 35.33 41.727 32.472 40.799 35.33 37.799 35.33 40.227 37.092 39.301 39.945 41.729 38.182 44.156 39.945 43.229 37.093 45.658 35.33 42.656 35.33"/><polygon class="cls-1" points="59.559 35.33 58.633 32.472 57.703 35.33 54.701 35.33 57.129 37.091 56.203 39.945 58.631 38.183 61.059 39.945 60.133 37.092 62.559 35.33 59.559 35.33"/><polygon class="cls-1" points="76.461 35.33 75.533 32.472 74.604 35.33 71.602 35.33 74.031 37.092 73.106 39.945 75.533 38.182 77.963 39.945 77.033 37.092 79.461 35.33 76.461 35.33"/><polygon class="cls-1" points="93.363 35.33 92.436 32.472 91.506 35.33 88.506 35.33 90.936 37.093 90.01 39.945 92.436 38.182 94.865 39.945 93.936 37.092 96.365 35.33 93.363 35.33"/><polygon class="cls-1" points="13.859 46.703 16.287 44.936 18.715 46.703 17.789 43.846 20.217 42.081 17.215 42.081 16.289 39.227 15.361 42.081 12.359 42.081 14.787 43.847 13.859 46.703"/><polygon class="cls-1" points="30.762 46.703 33.191 44.935 35.619 46.703 34.691 43.846 37.119 42.081 34.117 42.081 33.188 39.227 32.262 42.081 29.262 42.081 31.691 43.847 30.762 46.703"/><polygon class="cls-1" points="47.664 46.703 50.092 44.936 52.522 46.703 51.594 43.847 54.022 42.081 51.02 42.081 50.092 39.227 49.164 42.081 46.164 42.081 48.59 43.847 47.664 46.703"/><polygon class="cls-1" points="64.566 46.703 66.994 44.936 69.424 46.703 68.496 43.847 70.924 42.081 67.922 42.081 66.996 39.227 66.066 42.081 63.066 42.081 65.492 43.844 64.566 46.703"/><polygon class="cls-1" points="81.469 46.703 83.897 44.936 86.326 46.703 85.398 43.847 87.826 42.081 84.824 42.081 83.898 39.227 82.969 42.081 79.967 42.081 82.395 43.846 81.469 46.703"/><polygon class="cls-1" points="5.41 53.942 7.836 52.178 10.266 53.942 9.336 51.09 11.766 49.325 8.766 49.325 7.838 46.47 6.91 49.325 3.908 49.325 6.336 51.091 5.41 53.942"/><polygon class="cls-1" points="22.313 53.942 24.738 52.179 27.17 53.942 26.24 51.09 28.67 49.325 25.666 49.325 24.738 46.47 23.813 49.325 20.811 49.325 23.238 51.09 22.313 53.942"/><polygon class="cls-1" points="39.215 53.942 41.643 52.179 44.072 53.942 43.143 51.088 45.57 49.325 42.566 49.325 41.641 46.47 40.713 49.325 37.711 49.325 40.141 51.091 39.215 53.942"/><polygon class="cls-1" points="56.113 53.942 58.543 52.179 60.971 53.942 60.045 51.09 62.473 49.325 59.471 49.325 58.543 46.47 57.613 49.325 54.613 49.325 57.041 51.089 56.113 53.942"/><polygon class="cls-1" points="73.018 53.942 75.445 52.178 77.873 53.942 76.945 51.091 79.375 49.325 76.371 49.325 75.445 46.47 74.516 49.325 71.516 49.325 73.945 51.09 73.018 53.942"/><polygon class="cls-1" points="89.92 53.942 92.348 52.179 94.775 53.942 93.848 51.089 96.275 49.325 93.275 49.325 92.35 46.47 91.42 49.325 88.42 49.325 90.846 51.09 89.92 53.942"/><polygon class="cls-1" points="17.551 56.153 16.623 53.297 15.695 56.153 12.695 56.153 15.123 57.919 14.197 60.773 16.625 59.01 19.053 60.773 18.125 57.918 20.555 56.153 17.551 56.153"/><polygon class="cls-1" points="34.455 56.153 33.527 53.297 32.6 56.153 29.596 56.153 32.025 57.919 31.098 60.773 33.525 59.009 35.953 60.773 35.025 57.919 37.457 56.153 34.455 56.153"/><polygon class="cls-1" points="51.357 56.153 50.43 53.297 49.5 56.153 46.5 56.153 48.928 57.918 48 60.773 50.428 59.009 52.857 60.773 51.928 57.919 54.359 56.153 51.357 56.153"/><polygon class="cls-1" points="68.26 56.153 67.332 53.297 66.402 56.153 63.4 56.153 65.83 57.918 64.902 60.773 67.33 59.009 69.76 60.773 68.83 57.919 71.26 56.153 68.26 56.153"/><polygon class="cls-1" points="85.16 56.153 84.232 53.297 83.305 56.153 80.303 56.153 82.731 57.919 81.805 60.773 84.232 59.009 86.662 60.773 85.732 57.918 88.16 56.153 85.16 56.153"/><polygon class="cls-1" points="9.1 63.398 8.172 60.544 7.244 63.398 4.244 63.398 6.672 65.162 5.746 68.015 8.172 66.253 10.602 68.015 9.674 65.162 12.102 63.398 9.1 63.398"/><polygon class="cls-1" points="26.002 63.398 25.074 60.544 24.148 63.398 21.147 63.398 23.574 65.162 22.648 68.015 25.074 66.252 27.504 68.015 26.574 65.163 29.004 63.398 26.002 63.398"/><polygon class="cls-1" points="42.904 63.398 41.977 60.544 41.049 63.398 38.047 63.398 40.477 65.162 39.549 68.015 41.977 66.252 44.406 68.015 43.477 65.163 45.906 63.398 42.904 63.398"/><polygon class="cls-1" points="59.807 63.398 58.881 60.544 57.951 63.398 54.949 63.398 57.379 65.162 56.451 68.015 58.879 66.252 61.309 68.015 60.381 65.163 62.809 63.398 59.807 63.398"/><polygon class="cls-1" points="76.709 63.398 75.781 60.544 74.854 63.398 71.854 63.398 74.281 65.163 73.354 68.015 75.781 66.252 78.209 68.015 77.281 65.162 79.709 63.398 76.709 63.398"/><polygon class="cls-1" points="96.613 63.398 93.609 63.398 92.684 60.544 91.756 63.398 88.754 63.398 91.182 65.162 90.256 68.015 92.684 66.253 95.113 68.015 94.184 65.162 96.613 63.398"/></svg>