<?xml version="1.0" encoding="UTF-8"?>
<svg width="42px" height="42px" viewBox="0 0 42 42" version="1.1" xmlns="http://www.w3.org/2000/svg" xmlns:xlink="http://www.w3.org/1999/xlink">
    <!-- Generator: Sketch 48.2 (47327) - http://www.bohemiancoding.com/sketch -->
    <title>椭圆_10_拷贝 copy 6</title>
    <desc>Created with Sketch.</desc>
    <defs></defs>
    <g id="pc端" stroke="none" stroke-width="1" fill="none" fill-rule="evenodd">
        <rect id="Path" fill="#F1F1F1" x="-19894" y="-18287" width="41821" height="31042"></rect>
        <path d="M-744,150 L1176,150 L1176,458 L-744,458 L-744,150 Z M-744,-218 L1176,-218 L1176,150 L-744,150 L-744,-218 Z" id="矩形_11_拷贝_2" fill="#191919"></path>
        <circle id="椭圆_10_拷贝-copy-6" fill="#444444" fill-rule="nonzero" cx="21" cy="21" r="21"></circle>
        <path d="M22.389,16.270441 C22.3645582,15.962198 22.4178522,15.6527492 22.544,15.370441 C22.7669789,15.0766416 23.1320223,14.9272535 23.497,14.980441 L25.136,14.980441 L25.136,12.000441 L22.387,12.000441 C21.8032954,11.992276 21.2235613,12.0975587 20.68,12.310441 C19.416,12.810441 18.774,13.990441 18.774,15.830441 L18.774,17.630441 L17,17.630441 L17,20.630441 L18.774,20.630441 L18.774,29.290441 L22.387,29.290441 L22.387,20.630441 L24.847,20.630441 L25.18,17.630441 L22.387,17.630441 L22.387,16.270441 L22.389,16.270441 Z" id="形状_3-copy" fill="#191919"></path>
    </g>
</svg>