<?xml version="1.0" encoding="UTF-8"?>
<svg width="42px" height="42px" viewBox="0 0 42 42" version="1.1" xmlns="http://www.w3.org/2000/svg" xmlns:xlink="http://www.w3.org/1999/xlink">
    <!-- Generator: Sketch 48.2 (47327) - http://www.bohemiancoding.com/sketch -->
    <title>椭圆_10_拷贝 copy 4</title>
    <desc>Created with Sketch.</desc>
    <defs></defs>
    <g id="pc端" stroke="none" stroke-width="1" fill="none" fill-rule="evenodd">
        <rect id="Path" fill="#F1F1F1" x="-19819" y="-18287" width="41821" height="31042"></rect>
        <path d="M-669,150 L1251,150 L1251,458 L-669,458 L-669,150 Z M-669,-218 L1251,-218 L1251,150 L-669,150 L-669,-218 Z" id="矩形_11_拷贝_2" fill="#191919"></path>
        <circle id="椭圆_10_拷贝-copy-4" fill="#444444" fill-rule="nonzero" cx="21" cy="21" r="21"></circle>
        <g id="post-instagram" transform="translate(13.000000, 13.000000)" fill="#191919" fill-rule="nonzero">
            <path d="M15.3,0 L1.70000001,0 C0.764999999,0 0,0.764999999 0,1.70000001 L0,15.3 C0,16.235 0.764999999,17 1.69999999,17 L15.3,17 C16.235,17 17,16.235 17,15.3 L17,1.70000001 C17,0.764999999 16.235,0 15.3,0 Z M8.94736842,5.36842105 C10.9157895,5.36842105 12.5263158,6.97894737 12.5263158,8.94736842 C12.5263158,10.9157895 10.9157895,12.5263158 8.94736842,12.5263158 C6.97894737,12.5263158 5.36842105,10.9157895 5.36842105,8.94736842 C5.36842105,6.97894737 6.97894737,5.36842105 8.94736842,5.36842105 Z M2.20888157,16.1052632 C1.95723684,16.1052632 1.78947368,15.9263158 1.78947368,15.6578947 L1.78947368,8.05263158 L3.55098684,8.05263158 C3.46710526,8.32105263 3.46710526,8.67894738 3.46710526,8.94736843 C3.46710526,11.9 5.73190789,14.3157895 8.5,14.3157895 C11.2680921,14.3157895 13.5328947,11.9 13.5328947,8.94736843 C13.5328947,8.67894738 13.5328947,8.32105263 13.4490132,8.05263158 L15.2105263,8.05263158 L15.2105263,15.6578947 C15.2105263,15.9263158 15.0427632,16.1052632 14.7911184,16.1052632 L2.20888157,16.1052632 Z M15.2105263,4.02631578 C15.2105263,4.29473683 15.031579,4.47368421 14.7631579,4.47368421 L12.9736842,4.47368421 C12.7052632,4.47368421 12.5263158,4.29473683 12.5263158,4.02631578 L12.5263158,2.2368421 C12.5263158,1.96842105 12.7052632,1.78947368 12.9736842,1.78947368 L14.7631579,1.78947368 C15.031579,1.78947368 15.2105263,1.96842105 15.2105263,2.2368421 L15.2105263,4.02631578 Z" id="Shape"></path>
        </g>
    </g>
</svg>