<?xml version="1.0" encoding="UTF-8"?>
<svg width="42px" height="42px" viewBox="0 0 42 42" version="1.1" xmlns="http://www.w3.org/2000/svg" xmlns:xlink="http://www.w3.org/1999/xlink">
    <!-- Generator: Sketch 48.2 (47327) - http://www.bohemiancoding.com/sketch -->
    <title>官网</title>
    <desc>Created with Sketch.</desc>
    <defs></defs>
    <g id="pc端" stroke="none" stroke-width="1" fill="none" fill-rule="evenodd">
        <rect id="Path" fill="#F1F1F1" x="-19744" y="-18287" width="41821" height="31042"></rect>
        <path d="M-594,150 L1326,150 L1326,458 L-594,458 L-594,150 Z M-594,-218 L1326,-218 L1326,150 L-594,150 L-594,-218 Z" id="矩形_11_拷贝_2" fill="#191919"></path>
        <circle id="椭圆_10_拷贝-copy-2" fill="#444444" fill-rule="nonzero" cx="21" cy="21" r="21"></circle>
        <path d="M23.981,14.004927 C25.1435753,13.9473916 26.2741309,14.3959669 27.081,15.234927 C27.7811874,15.1224418 28.4573574,14.892544 29.081,14.554927 C29.244,14.464927 29.406,14.384927 29.569,14.294927 C29.3312075,15.0149983 28.8897135,15.6506664 28.298,16.124927 C28.1681609,16.2457949 28.023705,16.3499376 27.868,16.434927 L27.868,16.444927 C28.6330236,16.3578447 29.3804765,16.155557 30.085,15.844927 L30.085,15.854927 C29.7236307,16.4272423 29.2756331,16.9400106 28.757,17.374927 L28.145,17.854927 C28.1794332,18.695741 28.1187144,19.5377528 27.964,20.364927 C27.2622588,24.4735038 24.288232,27.8270863 20.293,29.014927 C18.4911233,29.5345482 16.5907417,29.6134307 14.752,29.244927 C13.9658004,29.059359 13.1964627,28.808488 12.452,28.494927 C12.0700289,28.3267616 11.699853,28.1329872 11.344,27.914927 C11.229,27.844927 11.115,27.784927 11,27.714927 C11.4150405,27.7689317 11.8343587,27.7823284 12.252,27.754927 C12.637,27.694927 13.014,27.714927 13.369,27.634927 C14.1929667,27.4798867 14.9865058,27.1928619 15.719,26.784927 C16.1052174,26.6093438 16.4628732,26.3767495 16.78,26.094927 C16.3820385,26.0937055 15.9873814,26.0226266 15.614,25.884927 C14.4390597,25.4887267 13.5191743,24.5625433 13.131,23.384927 C13.7118381,23.4914846 14.3093315,23.4641237 14.878,23.304927 C14.4151551,23.2455779 13.9748371,23.0701387 13.598,22.794927 C12.4211354,22.0955716 11.7157189,20.8133441 11.755,19.444927 C11.889,19.504927 12.022,19.574927 12.155,19.634927 C12.4195842,19.7409392 12.6948483,19.8180534 12.976,19.864927 C13.1482613,19.9218194 13.3311798,19.9389146 13.511,19.914927 L13.492,19.914927 C13.292,19.684927 12.974,19.534927 12.776,19.284927 C11.9266127,18.3131301 11.5991904,16.9907763 11.897,15.734927 C11.9949575,15.3789434 12.1363537,15.0363684 12.318,14.714927 C12.3214344,14.7220862 12.3291543,14.7261493 12.337,14.724927 C12.4373499,14.8755966 12.5559129,15.0133043 12.69,15.134927 C13.034158,15.5516455 13.4250544,15.9274429 13.855,16.254927 C15.2512132,17.3837226 16.8895678,18.1743219 18.642,18.564927 C19.2167502,18.7083196 19.8066389,18.7821816 20.399,18.784927 C20.2475889,18.1834747 20.2541337,17.5531059 20.418,16.954927 C20.7060161,15.7806056 21.5255506,14.8079631 22.634,14.324927 C22.9161862,14.2139888 23.2072148,14.1270147 23.504,14.064927 L23.981,14.004927 Z" id="形状_2-copy" fill="#191919"></path>
    </g>
</svg>