<svg id="Layer_1" data-name="Layer 1" xmlns="http://www.w3.org/2000/svg" viewBox="0 0 200 134"><defs><style>.cls-1{fill:#273476;}.cls-2{fill:#fff;}.cls-3{fill:#ed2f31;}</style></defs><title>英国</title><polygon class="cls-1" points="116.709 134 175.336 134 116.709 93.754 116.709 134"/><path class="cls-1" d="M1480.1758,913.0962v28.0117a16.96942,16.96942,0,0,0,.2988,3.1231l44.7833-30.3985Z" transform="translate(-1480.1758 -824.1079)"/><path class="cls-1" d="M1480.4786,837.9556a17.10388,17.10388,0,0,0-.3028,3.1523v26.6192l44.7363,0.7304Z" transform="translate(-1480.1758 -824.1079)"/><polygon class="cls-1" points="177.258 0 116.709 0 116.709 41.104 177.258 0"/><path class="cls-1" d="M1680.1758,867.7271V841.1079a16.96341,16.96341,0,0,0-.3047-3.1543l-44.4336,30.5039Z" transform="translate(-1480.1758 -824.1079)"/><path class="cls-1" d="M1679.877,944.2329a17.173,17.173,0,0,0,.2988-3.125V913.0962l-45.084.7363Z" transform="translate(-1480.1758 -824.1079)"/><polygon class="cls-1" points="83.291 0 22.74 0 83.291 41.104 83.291 0"/><polygon class="cls-1" points="24.662 134 83.291 134 83.291 93.754 24.662 134"/><path class="cls-2" d="M1563.4668,865.2114l-60.5507-41.1035h-5.7403a16.90207,16.90207,0,0,0-10.0312,3.2969l59.6133,41.6797h-14.9454l-49.9882-35.2422a16.81055,16.81055,0,0,0-1.3457,4.1133l44.4335,30.5019-44.7363-.7304v9.0742l58.1719,0.8789,31.8027,0.4785V824.1079h-6.6836v41.1035Z" transform="translate(-1480.1758 -824.1079)"/><path class="cls-2" d="M1590.2012,905.3794v52.7285h6.6836V917.8618l58.627,40.2461h7.664a16.92778,16.92778,0,0,0,10.8164-3.8848l-60.3965-39.7675h14.9434l50.4316,32.9101a16.87958,16.87958,0,0,0,.9063-3.1328l-44.7852-30.4004,45.084-.7363v-9.0723l-58.2402.877Z" transform="translate(-1480.1758 -824.1079)"/><path class="cls-2" d="M1480.1758,904.0239v9.0723l45.0821,0.7363-44.7833,30.3985a16.96781,16.96781,0,0,0,5.8848,9.9921l60.3985-39.7675h14.9453l-64.3086,43.6523h7.4433l58.6289-40.2461v40.2461h6.6836V905.3794l-31.7383-.4785Z" transform="translate(-1480.1758 -824.1079)"/><path class="cls-2" d="M1635.4375,868.4575l44.4336-30.5039a16.97953,16.97953,0,0,0-6.664-10.5488l-59.6114,41.6797h-14.9492l64.3301-44.9766h-5.543l-60.5488,41.1035V824.1079h-6.6836v54.0508l31.8008-.4785,58.1738-.8789v-9.0742Z" transform="translate(-1480.1758 -824.1079)"/><polygon class="cls-3" points="141.826 53.572 110.025 54.051 110.025 45.639 110.025 0 89.975 0 89.975 45.641 89.975 54.051 58.172 53.572 0 52.693 0 79.916 58.236 80.793 89.975 81.271 89.975 89.166 89.975 134 110.025 134 110.025 89.166 110.025 81.271 141.76 80.793 200 79.916 200 52.693 141.826 53.572"/><path class="cls-3" d="M1531.8125,869.0845h14.9454l-59.6133-41.6797a17.02925,17.02925,0,0,0-5.3203,6.4375Z" transform="translate(-1480.1758 -824.1079)"/><path class="cls-3" d="M1598.6465,869.0845h14.9492l59.6114-41.6797a16.9112,16.9112,0,0,0-10.0313-3.2969h-0.1992Z" transform="translate(-1480.1758 -824.1079)"/><path class="cls-3" d="M1613.5957,914.4556l60.3965,39.7675a17.025,17.025,0,0,0,4.9785-6.8574l-50.4316-32.9101h-14.9434Z" transform="translate(-1480.1758 -824.1079)"/><path class="cls-3" d="M1546.7579,914.4556l-60.3985,39.7675a16.91982,16.91982,0,0,0,10.8164,3.8848h0.2188l64.3086-43.6523h-14.9453Z" transform="translate(-1480.1758 -824.1079)"/></svg>