<?xml version="1.0" encoding="UTF-8"?>
<svg width="42px" height="42px" viewBox="0 0 42 42" version="1.1" xmlns="http://www.w3.org/2000/svg" xmlns:xlink="http://www.w3.org/1999/xlink">
    <!-- Generator: Sketch 48.2 (47327) - http://www.bohemiancoding.com/sketch -->
    <title>椭圆_10 copy</title>
    <desc>Created with Sketch.</desc>
    <defs></defs>
    <g id="pc端" stroke="none" stroke-width="1" fill="none" fill-rule="evenodd">
        <rect id="Path" fill="#F1F1F1" x="-19515" y="-18353" width="41821" height="31042"></rect>
        <path d="M-365,84 L1555,84 L1555,392 L-365,392 L-365,84 Z M-365,-284 L1555,-284 L1555,84 L-365,84 L-365,-284 Z" id="矩形_11_拷贝_2" fill="#191919"></path>
        <circle id="椭圆_10-copy" fill="#B6B6B6" fill-rule="nonzero" cx="21" cy="21" r="21"></circle>
        <path d="M26.5595194,20.6598003 C25.6375194,20.4918003 26.0855194,20.0248003 26.0855194,20.0248003 C26.5915723,19.2761478 26.5179487,18.2780931 25.9075194,17.6118003 C24.5675194,16.3548003 21.3125194,17.7718003 21.3125194,17.7718003 C20.0695194,18.1348003 20.3985194,17.6068003 20.5745194,16.7088003 C20.5745194,15.6498003 20.1885194,13.8588003 16.8745194,14.9168003 C13.5605194,15.9748003 10.7245194,19.7078003 10.7245194,19.7078003 C8.74951944,22.1838003 9.01151944,24.0978003 9.01151944,24.0978003 C9.50451944,28.3228003 14.2835194,29.4838003 18.0005194,29.7578003 C21.9115194,30.0458003 27.1895194,28.4918003 28.7905194,25.2978003 C30.3915194,22.1038003 27.4825194,20.8328003 26.5565194,20.6598003 L26.5595194,20.6598003 Z M18.2935194,28.5658003 C14.4115194,28.7368003 11.2725194,26.9078003 11.2725194,24.4738003 C11.2725194,22.0398003 14.4115194,20.0838003 18.2935194,19.9158003 C22.1755194,19.7478003 25.3225194,21.2508003 25.3225194,23.6828003 C25.3225194,26.1148003 22.1785194,28.4008003 18.2935194,28.5658003 Z M17.5185194,21.5178003 C13.6185194,21.9468003 14.0655194,25.3828003 14.0655194,25.3828003 C14.0785931,26.0832855 14.4829414,26.717421 15.1125194,27.0248003 C17.0451042,28.1018369 19.4663133,27.693315 20.9385194,26.0418003 C22.1275194,24.5988003 21.4285194,21.0908003 17.5185194,21.5178003 Z M16.5345194,26.3398003 C16.240351,26.4174197 15.9269983,26.3643947 15.6747457,26.194311 C15.4224931,26.0242273 15.2558526,25.7536121 15.2175194,25.4518003 C15.2703586,24.786084 15.8023249,24.2592206 16.4685194,24.2128003 C16.7804466,24.1308695 17.1125913,24.1889129 17.3782447,24.3717777 C17.643898,24.5546424 17.8166927,24.8441785 17.8515194,25.1648003 C17.7561303,25.8243322 17.2006181,26.3199486 16.5345194,26.3398003 Z M18.8345194,24.4978003 C18.7379399,24.5838467 18.6101672,24.626286 18.4812993,24.6151212 C18.3524314,24.6039565 18.2338613,24.5401747 18.1535194,24.4388003 C18.0111882,24.1990832 18.0841108,23.8897144 18.3185194,23.7388003 C18.4191538,23.6451766 18.5545445,23.5982291 18.6915359,23.6094548 C18.8285274,23.6206805 18.9544691,23.6890427 19.0385194,23.7978003 C19.1583896,24.0481428 19.0725524,24.348573 18.8385194,24.4978003 L18.8345194,24.4978003 Z M28.4605194,19.1688003 C28.7629916,19.1758645 29.027091,18.9652589 29.0875194,18.6688003 C29.0928219,18.6478797 29.0955091,18.6263823 29.0955194,18.6048003 C29.5725194,14.5768003 25.5825194,15.2698003 25.5825194,15.2698003 C25.2497679,15.2698003 24.9800194,15.5395487 24.9800194,15.8723003 C24.9800194,16.2050518 25.2497679,16.4748003 25.5825194,16.4748003 C28.4485194,15.8808003 27.8155194,18.5748003 27.8155194,18.5748003 C27.8279967,18.9185743 28.1167417,19.1871743 28.4605194,19.1748003 L28.4605194,19.1688003 Z M27.9955194,12.1378003 C26.9366284,11.9444723 25.8505998,11.9546538 24.7955194,12.1678003 C24.765494,12.1776455 24.7361048,12.1893344 24.7075194,12.2028003 C24.6982815,12.2054163 24.6901848,12.2110487 24.6845194,12.2188003 C24.292509,12.3152316 24.0143155,12.6631787 24.0065194,13.0668003 C24.0132991,13.3064233 24.1153945,13.5334403 24.2901671,13.6975125 C24.4649397,13.8615847 24.6979461,13.9491531 24.9375194,13.9408003 C25.223371,13.9041641 25.5052324,13.8412306 25.7795194,13.7528003 C27.5921193,13.581821 29.3561094,14.4013215 30.3945194,15.8968003 C30.8835636,16.7833267 30.986967,17.8318219 30.6805194,18.7968003 C30.569899,19.0647339 30.5076037,19.3501411 30.4965194,19.6398003 C30.5082958,19.8696434 30.614527,20.0844039 30.7900654,20.2332423 C30.9656037,20.3820806 31.1948442,20.4517654 31.4235194,20.4258003 C31.6441311,20.4715419 31.8735872,20.4148498 32.0475116,20.2716293 C32.2214361,20.1284088 32.3210918,19.9140894 32.3185194,19.6888003 L32.3245194,19.6888003 C33.8475194,14.9178003 30.4595194,12.6758003 27.9915194,12.1348003 L27.9955194,12.1378003 Z" id="形状_5-copy-2" fill="#191919"></path>
    </g>
</svg>