<?xml version="1.0" encoding="UTF-8"?>
<svg width="42px" height="42px" viewBox="0 0 42 42" version="1.1" xmlns="http://www.w3.org/2000/svg" xmlns:xlink="http://www.w3.org/1999/xlink">
    <!-- Generator: Sketch 48.2 (47327) - http://www.bohemiancoding.com/sketch -->
    <title>椭圆_10_拷贝 copy</title>
    <desc>Created with Sketch.</desc>
    <defs></defs>
    <g id="pc端" stroke="none" stroke-width="1" fill="none" fill-rule="evenodd">
        <rect id="Path" fill="#F1F1F1" x="-19595" y="-18353" width="41821" height="31042"></rect>
        <path d="M-445,84 L1475,84 L1475,392 L-445,392 L-445,84 Z M-445,-284 L1475,-284 L1475,84 L-445,84 L-445,-284 Z" id="矩形_11_拷贝_2" fill="#191919"></path>
        <circle id="椭圆_10_拷贝-copy" fill="#B6B6B6" fill-rule="nonzero" cx="21" cy="21" r="21"></circle>
        <path d="M18.3,14 C14.267,14 11,16.636 11,19.888 C11.0700429,21.8414228 12.1573068,23.6157191 13.866,24.565 L13.933,24.605 L13.228,26.736 L15.867,25.441 L15.992,25.475 C16.7456365,25.6752378 17.5222167,25.7760924 18.302,25.775 C18.467,25.775 18.63,25.769 18.793,25.76 C18.6404254,25.3089603 18.5620733,24.8361456 18.561,24.36 C18.561,21.391 21.54,18.984 25.211,18.984 C25.321,18.984 25.421,18.984 25.521,18.991 C24.981,16.166 21.955,14.004 18.302,14.004 L18.3,14 Z M15.759,18.817 C15.2393841,18.7806084 14.8438265,18.3360965 14.8680364,17.8157707 C14.8922464,17.2954449 15.3273707,16.8895834 15.8481208,16.9015985 C16.3688709,16.9136135 16.7848135,17.3391113 16.785,17.86 C16.7654575,18.4073675 16.3064021,18.8355508 15.759,18.817 Z M20.841,18.817 C20.3212078,18.781142 19.9251403,18.3368263 19.9490067,17.8163456 C19.972873,17.295865 20.4079405,16.8896604 20.928833,16.9015224 C21.4497255,16.9133843 21.8658512,17.3389725 21.866,17.86 C21.8464535,18.406964 21.3880176,18.8349866 20.841,18.817 Z M31.429,24.39 C31.429,21.644 28.669,19.417 25.269,19.417 C21.869,19.417 19.096,21.644 19.096,24.39 C19.096,27.136 21.859,29.365 25.269,29.365 C25.9274101,29.3665065 26.583117,29.2807602 27.219,29.11 L27.319,29.081 L29.549,30.181 L28.959,28.381 C28.9768358,28.3710996 28.9935927,28.3593697 29.009,28.346 C30.4541676,27.5455326 31.3729574,26.0450956 31.429,24.394 L31.429,24.39 Z M23.119,23.49 C22.6799508,23.4579744 22.346619,23.0815444 22.3679529,22.6418459 C22.3892869,22.2021474 22.7574955,21.8597557 23.1975829,21.8703854 C23.6376702,21.8810151 23.9889191,22.2407843 23.989,22.681 C23.9811877,22.9037451 23.8850669,23.1142278 23.7218473,23.2660033 C23.5586277,23.4177787 23.3417248,23.4983722 23.119,23.49 Z M27.409,23.49 C27.1083974,23.5083195 26.8224486,23.358352 26.6666081,23.1006481 C26.5107677,22.8429443 26.5107677,22.5200557 26.6666081,22.2623519 C26.8224486,22.004648 27.1083974,21.8546805 27.409,21.873 C27.7130273,21.8490727 28.0047761,21.9977263 28.1641211,22.2577538 C28.323466,22.5177813 28.323466,22.8452187 28.1641211,23.1052462 C28.0047761,23.3652737 27.7130273,23.5139273 27.409,23.49 Z" id="形状_6-copy-2" fill="#191919"></path>
    </g>
</svg>