<?xml version="1.0" encoding="UTF-8"?>
<svg width="42px" height="42px" viewBox="0 0 42 42" version="1.1" xmlns="http://www.w3.org/2000/svg" xmlns:xlink="http://www.w3.org/1999/xlink">
    <!-- Generator: Sketch 48.2 (47327) - http://www.bohemiancoding.com/sketch -->
    <title>椭圆_10_拷贝</title>
    <desc>Created with Sketch.</desc>
    <defs></defs>
    <g id="pc端" stroke="none" stroke-width="1" fill="none" fill-rule="evenodd">
        <rect id="Path" fill="#F1F1F1" x="-19595" y="-18287" width="41821" height="31042"></rect>
        <path d="M-445,150 L1475,150 L1475,458 L-445,458 L-445,150 Z M-445,-218 L1475,-218 L1475,150 L-445,150 L-445,-218 Z" id="矩形_11_拷贝_2" fill="#191919"></path>
        <circle id="椭圆_10_拷贝" fill="#444444" fill-rule="nonzero" cx="21" cy="21" r="21"></circle>
        <path d="M18.3003574,14 C14.26716,14 11,16.636 11,19.888 C11.0700464,21.8414228 12.1573635,23.6157191 13.8661403,24.565 L13.9331436,24.605 L13.2281091,26.736 L15.8672383,25.441 L15.9922444,25.475 C16.7459179,25.6752378 17.5225361,25.7760924 18.3023575,25.775 C18.4673656,25.775 18.6303736,25.769 18.7933816,25.76 C18.6407996,25.3089603 18.5624436,24.8361456 18.5613702,24.36 C18.5613702,21.391 21.5405161,18.984 25.2116958,18.984 C25.3217012,18.984 25.4217061,18.984 25.521711,18.991 C24.9816846,16.166 21.9555364,14.004 18.3023575,14.004 L18.3003574,14 Z M15.759233,18.817 C15.2395917,18.7806084 14.8440147,18.3360965 14.8682258,17.8157707 C14.892437,17.2954449 15.3275826,16.8895834 15.8483582,16.9015985 C16.3691338,16.9136135 16.7850968,17.3391113 16.7852833,17.86 C16.7657398,18.4073675 16.3066619,18.8355508 15.759233,18.817 Z M20.8414819,18.817 C20.3216642,18.781142 19.9255774,18.3368263 19.9494448,17.8163456 C19.9733123,17.295865 20.4084012,16.8896604 20.9293192,16.9015224 C21.4502372,16.9133843 21.8663833,17.3389725 21.8665321,17.86 C21.8469846,18.406964 21.3885262,18.8349866 20.8414819,18.817 Z M31.4300003,24.39 C31.4300003,21.644 28.6698652,19.417 25.2696987,19.417 C21.8695322,19.417 19.0963964,21.644 19.0963964,24.39 C19.0963964,27.136 21.8595317,29.365 25.2696987,29.365 C25.9281411,29.3665065 26.5838801,29.2807602 27.2197942,29.11 L27.3197991,29.081 L29.5499083,30.181 L28.9598794,28.381 C28.977716,28.3710996 28.9944738,28.3593697 29.0098818,28.346 C30.4551201,27.5455326 31.373955,26.0450956 31.4300003,24.394 L31.4300003,24.39 Z M23.1195934,23.49 C22.6805227,23.4579744 22.3471746,23.0815444 22.3685096,22.6418459 C22.3898446,22.2021474 22.7580712,21.8597557 23.1981801,21.8703854 C23.638289,21.8810151 23.9895551,22.2407843 23.989636,22.681 C23.9818234,22.9037451 23.8856978,23.1142278 23.7224702,23.2660033 C23.5592426,23.4177787 23.3423291,23.4983722 23.1195934,23.49 Z M27.4098035,23.49 C27.1091862,23.5083195 26.8232233,23.358352 26.6673753,23.1006481 C26.5115272,22.8429443 26.5115272,22.5200557 26.6673753,22.2623519 C26.8232233,22.004648 27.1091862,21.8546805 27.4098035,21.873 C27.7138457,21.8490727 28.0056087,21.9977263 28.1649615,22.2577538 C28.3243143,22.5177813 28.3243143,22.8452187 28.1649615,23.1052462 C28.0056087,23.3652737 27.7138457,23.5139273 27.4098035,23.49 Z" id="形状_6" fill="#191919"></path>
    </g>
</svg>