<?xml version="1.0" encoding="UTF-8"?>
<svg width="42px" height="42px" viewBox="0 0 42 42" version="1.1" xmlns="http://www.w3.org/2000/svg" xmlns:xlink="http://www.w3.org/1999/xlink">
    <!-- Generator: Sketch 48.2 (47327) - http://www.bohemiancoding.com/sketch -->
    <title>椭圆_10_拷贝 copy 9</title>
    <desc>Created with Sketch.</desc>
    <defs></defs>
    <g id="pc端" stroke="none" stroke-width="1" fill="none" fill-rule="evenodd">
        <rect id="Path" fill="#F1F1F1" x="-19961" y="-18354" width="41821" height="31042"></rect>
        <path d="M-811,83 L1109,83 L1109,391 L-811,391 L-811,83 Z M-811,-285 L1109,-285 L1109,83 L-811,83 L-811,-285 Z" id="矩形_11_拷贝_2" fill="#191919"></path>
        <circle id="椭圆_10_拷贝-copy-9" fill="#B6B6B6" fill-rule="nonzero" cx="21" cy="21" r="21"></circle>
        <path d="M23.4284549,24.9 L23.4284549,27.25 C23.4284549,27.75 23.2851215,28 22.9984549,28 C22.8061714,27.990983 22.6257612,27.9043861 22.4984549,27.76 L22.4984549,24.39 C22.6257612,24.2456139 22.8061714,24.159017 22.9984549,24.15 C23.2857882,24.15 23.4291215,24.4 23.4284549,24.9 Z M27.1604549,24.91 L27.1604549,25.42 L26.1684549,25.42 L26.1684549,24.91 C26.1684549,24.4 26.3344549,24.15 26.6684549,24.15 C27.0024549,24.15 27.1684549,24.4 27.1684549,24.91 L27.1604549,24.91 Z M16.4964549,22.47 L17.6774549,22.47 L17.6774549,21.42 L14.2334549,21.42 L14.2334549,22.47 L15.3924549,22.47 L15.3924549,28.83 L16.4924549,28.83 L16.4924549,22.47 L16.4964549,22.47 Z M19.6754549,28.83 L20.6584549,28.83 L20.6584549,23.31 L19.6754549,23.31 L19.6754549,27.53 C19.5532579,27.7788643 19.3188186,27.9537635 19.0454549,28 C18.9840368,28.0010879 18.9247999,27.9772382 18.8812699,27.9338966 C18.8377398,27.8905551 18.8136334,27.8314222 18.8144549,27.77 C18.8024877,27.6403668 18.7988136,27.5101016 18.8034549,27.38 L18.8034549,23.31 L17.8204549,23.31 L17.8204549,27.68 C17.8098045,27.9528581 17.8394569,28.2257951 17.9084549,28.49 C17.9911067,28.7671266 18.2613257,28.9444579 18.5484549,28.91 C19.0028534,28.8521661 19.4117385,28.6052372 19.6744549,28.23 L19.6744549,28.83 L19.6754549,28.83 Z M24.4114549,27.18 L24.4114549,24.98 C24.430004,24.607148 24.396345,24.2335332 24.3114549,23.87 C24.242703,23.4945231 23.9089288,23.2263117 23.5274549,23.24 C23.1075047,23.2673022 22.7260394,23.4940993 22.5014549,23.85 L22.5014549,21.42 L21.5184549,21.42 L21.5184549,28.83 L22.5014549,28.83 L22.5014549,28.29 C22.7304077,28.6429392 23.1085299,28.8714341 23.5274549,28.91 C23.9056405,28.9240792 24.2379933,28.6612492 24.3114549,28.29 C24.3955198,27.9229441 24.4291627,27.5461428 24.4114549,27.17 L24.4114549,27.18 Z M28.1424549,27.06 L28.1424549,26.92 L27.1424549,26.92 C27.1487083,27.1469026 27.1413618,27.3739761 27.1204549,27.6 C27.1086,27.8323901 26.9108711,28.0113302 26.6784549,28 C26.3394549,28 26.1704549,27.75 26.1704549,27.23 L26.1704549,26.26 L28.1464549,26.26 L28.1464549,25.11 C28.1797429,24.6563362 28.0751732,24.2032008 27.8464549,23.81 C27.5619298,23.4510505 27.1289933,23.2417724 26.6709549,23.2417724 C26.2129164,23.2417724 25.7799799,23.4510505 25.4954549,23.81 C25.2601659,24.200817 25.1521838,24.6551107 25.1864549,25.11 L25.1864549,27.04 C25.1510411,27.496296 25.2628458,27.9519265 25.5054549,28.34 C25.7837836,28.7157882 26.2302156,28.9292666 26.6974549,28.91 C27.1708643,28.9364834 27.62342,28.7124835 27.8894549,28.32 C28.0137634,28.1377826 28.0932564,27.9287707 28.1214549,27.71 C28.1426224,27.497367 28.1499711,27.2835846 28.1434549,27.07 L28.1434549,27.06 L28.1424549,27.06 Z M21.4314549,16.87 L21.4314549,14.52 C21.4314549,14.01 21.2724549,13.75 20.9564549,13.75 C20.6404549,13.75 20.4814549,14.01 20.4814549,14.52 L20.4814549,16.87 C20.4814549,17.39 20.6397882,17.65 20.9564549,17.65 C21.2731215,17.65 21.4314549,17.39 21.4314549,16.87 Z M29.3674549,25.25 C29.4036757,26.559672 29.307521,27.8696537 29.0804549,29.16 C28.9853124,29.5866097 28.761995,29.9739259 28.4404549,30.27 C28.1318824,30.5615037 27.7364573,30.7441156 27.3144549,30.79 C23.2358779,31.0966654 19.1400318,31.0966654 15.0614549,30.79 C14.6379445,30.743182 14.2408929,30.5607908 13.9294549,30.27 C13.6054909,29.9768097 13.3834095,29.587992 13.2954549,29.16 C13.0656002,27.870002 12.9694245,26.5597346 13.0084549,25.25 C12.9731625,23.9403494 13.0693104,22.6304608 13.2954549,21.34 C13.393129,20.9172426 13.6162007,20.5338381 13.9354549,20.24 C14.2487262,19.9479136 14.6463575,19.762399 15.0714549,19.71 C16.4184549,19.57 18.4564549,19.49 21.1874549,19.49 C23.9184549,19.49 25.9594549,19.57 27.3134549,19.71 C28.1859507,19.8291168 28.8914642,20.4799301 29.0804549,21.34 C29.3084102,22.6302281 29.4042389,23.9403342 29.3664549,25.25 L29.3674549,25.25 Z M18.3504549,11 L19.4764549,11 L18.1404549,15.46 L18.1404549,18.48 L17.0404549,18.48 L17.0404549,15.46 C16.8665487,14.6565422 16.6417624,13.8649472 16.3674549,13.09 C16.0954549,12.32 15.8554549,11.63 15.6494549,11 L16.8194549,11 L17.6024549,13.94 L18.3544549,11 L18.3504549,11 Z M22.4354549,14.72 L22.4354549,16.68 C22.472589,17.1382818 22.3644768,17.5966214 22.1264549,17.99 C21.8468137,18.34947 21.4168864,18.5597158 20.9614549,18.5597158 C20.5060234,18.5597158 20.076096,18.34947 19.7964549,17.99 C19.5610507,17.5955564 19.4531386,17.1380646 19.4874549,16.68 L19.4874549,14.72 C19.4517443,14.2618268 19.5597549,13.8039176 19.7964549,13.41 C20.076096,13.05053 20.5060234,12.8402842 20.9614549,12.8402842 C21.4168864,12.8402842 21.8468137,13.05053 22.1264549,13.41 C22.3631548,13.8039176 22.4711654,14.2618268 22.4354549,14.72 Z M26.1354549,12.91 L26.1354549,18.49 L25.1354549,18.49 L25.1354549,17.87 C24.8760746,18.2552288 24.4608811,18.507415 23.9994549,18.56 C23.7121423,18.5963704 23.4391526,18.424705 23.3474549,18.15 C23.2775402,17.8757493 23.2478964,17.592786 23.2594549,17.31 L23.2594549,12.91 L24.2594549,12.91 L24.2594549,17.01 C24.2537536,17.1400955 24.2574298,17.2704327 24.2704549,17.4 C24.2654423,17.4644112 24.287515,17.5279953 24.3313595,17.5754461 C24.3752041,17.6228969 24.436849,17.6499163 24.5014549,17.65 C24.7755919,17.5987353 25.0092665,17.4206974 25.1314549,17.17 L25.1314549,12.91 L26.1314549,12.91 L26.1354549,12.91 Z" id="形状_4-copy-2" fill="#191919"></path>
    </g>
</svg>