<svg xmlns="http://www.w3.org/2000/svg" width="1101.909" height="188" viewBox="0 0 1101.909 188">
  <metadata><?xpacket begin="﻿" id="W5M0MpCehiHzreSzNTczkc9d"?>
<x:xmpmeta xmlns:x="adobe:ns:meta/" x:xmptk="Adobe XMP Core 5.6-c140 79.160451, 2017/05/06-01:08:21        ">
   <rdf:RDF xmlns:rdf="http://www.w3.org/1999/02/22-rdf-syntax-ns#">
      <rdf:Description rdf:about=""/>
   </rdf:RDF>
</x:xmpmeta>
                                                                                                    
                                                                                                    
                                                                                                    
                                                                                                    
                                                                                                    
                                                                                                    
                                                                                                    
                                                                                                    
                                                                                                    
                                                                                                    
                                                                                                    
                                                                                                    
                                                                                                    
                                                                                                    
                                                                                                    
                                                                                                    
                                                                                                    
                                                                                                    
                                                                                                    
                                                                                                    
                           
<?xpacket end="w"?></metadata>
<defs>
    <style>
      .cls-1 {
        fill: #fff;
        fill-rule: evenodd;
      }
    </style>
  </defs>
  <path id="POWERVISION_EDITION_OF_ZEISS_VR_ONE_PLUS" data-name="POWERVISION EDITION OF ZEISS VR ONE PLUS" class="cls-1" d="M430.726,1238.64H441.47a28.824,28.824,0,0,1,4.733.39,12.633,12.633,0,0,1,4.178,1.4,7.672,7.672,0,0,1,2.942,2.94,11.781,11.781,0,0,1,0,9.98,7.672,7.672,0,0,1-2.942,2.94,12.642,12.642,0,0,1-4.178,1.41,28.816,28.816,0,0,1-4.733.38H430.726v-19.44Zm-8.187,53.21h8.187v-26.6h13.046a24.856,24.856,0,0,0,9.551-1.58,16.234,16.234,0,0,0,5.927-4.01,13.662,13.662,0,0,0,3.027-5.46,20.418,20.418,0,0,0,0-11.68,13.662,13.662,0,0,0-3.027-5.46,16.219,16.219,0,0,0-5.927-4,24.667,24.667,0,0,0-9.551-1.58H422.539v60.37Zm68.9-8.06a22.088,22.088,0,0,1-7.163-5.16,22.709,22.709,0,0,1-4.605-7.63,27.706,27.706,0,0,1,0-18.67,22.709,22.709,0,0,1,4.605-7.63,22.61,22.61,0,0,1,33.086,0,22.709,22.709,0,0,1,4.605,7.63,27.706,27.706,0,0,1,0,18.67,22.709,22.709,0,0,1-4.605,7.63A23.193,23.193,0,0,1,491.439,1283.79Zm22.086,7.17a29.506,29.506,0,0,0,9.934-6.7,30.873,30.873,0,0,0,6.481-10.06,34.675,34.675,0,0,0,0-25.07,30.873,30.873,0,0,0-6.481-10.06,29.652,29.652,0,0,0-9.934-6.7,34.431,34.431,0,0,0-25.411,0,29.627,29.627,0,0,0-9.935,6.7,30.84,30.84,0,0,0-6.481,10.06,34.675,34.675,0,0,0,0,25.07,30.84,30.84,0,0,0,6.481,10.06,29.48,29.48,0,0,0,9.935,6.7A34.431,34.431,0,0,0,513.525,1290.96Zm40.5,0.89h8.612l14.582-49.29h0.171l14.667,49.29h8.612l17.567-60.37h-8.527l-13.3,48.26h-0.171L582,1231.48h-9.381l-14.24,48.26h-0.171l-13.3-48.26h-8.527Zm72.055,0h40.505v-7.67H634.27v-19.36h28.652v-7.67H634.27v-18h30.784v-7.67h-38.97v60.37Zm60.288-53.21h10.744a28.815,28.815,0,0,1,4.733.39,12.633,12.633,0,0,1,4.178,1.4,7.672,7.672,0,0,1,2.942,2.94,11.781,11.781,0,0,1,0,9.98,7.672,7.672,0,0,1-2.942,2.94,12.642,12.642,0,0,1-4.178,1.41,28.807,28.807,0,0,1-4.733.38H686.372v-19.44Zm-8.186,53.21h8.186v-26.6H695.5l15.349,26.6h10.233l-17.14-27.54a16.469,16.469,0,0,0,6.183-1.83,16.921,16.921,0,0,0,4.69-3.67,15.813,15.813,0,0,0,2.942-4.86,15.556,15.556,0,0,0,1.023-5.59,21.571,21.571,0,0,0-.853-5.84,13.65,13.65,0,0,0-3.027-5.46,16.219,16.219,0,0,0-5.927-4,24.665,24.665,0,0,0-9.55-1.58H678.186v60.37Zm67.109,0h7.675l23.791-60.37h-8.954l-18.419,49.12h-0.17l-17.737-49.12h-9.466Zm38.714,0H792.2v-60.37h-8.186v60.37Zm18.76-6.82a18.069,18.069,0,0,0,8.271,6.31,29.859,29.859,0,0,0,11,2.05,25.8,25.8,0,0,0,8.187-1.28,19.852,19.852,0,0,0,6.651-3.67,17.4,17.4,0,0,0,4.477-5.88,18.049,18.049,0,0,0,1.663-7.85c0-3.64-.74-6.49-2.217-8.57a16.687,16.687,0,0,0-5.5-4.94,30.269,30.269,0,0,0-7.163-2.86,66.306,66.306,0,0,1-7.163-2.3,17.246,17.246,0,0,1-5.5-3.33,7.588,7.588,0,0,1-2.217-5.88,9.269,9.269,0,0,1,.555-2.99,8.035,8.035,0,0,1,1.918-3.02,10.206,10.206,0,0,1,3.624-2.31,15.663,15.663,0,0,1,5.671-.89,13.721,13.721,0,0,1,6.4,1.45,11.014,11.014,0,0,1,4.349,3.84l6.651-6.06a16.3,16.3,0,0,0-7.931-5.54,32.566,32.566,0,0,0-9.465-1.37,23.6,23.6,0,0,0-9.337,1.67,19.8,19.8,0,0,0-6.353,4.13,16.11,16.11,0,0,0-4.776,11.09q0,5.88,2.217,9.34a17.6,17.6,0,0,0,5.5,5.5,28.945,28.945,0,0,0,7.163,3.19q3.879,1.155,7.163,2.39a19.368,19.368,0,0,1,5.5,3.07,6.521,6.521,0,0,1,2.217,5.33,8.4,8.4,0,0,1-1.109,4.35,10.437,10.437,0,0,1-2.856,3.15,12.416,12.416,0,0,1-3.88,1.92,14.379,14.379,0,0,1-4.179.64,16.834,16.834,0,0,1-7.12-1.58,13.413,13.413,0,0,1-5.671-4.9Zm52.358,6.82h8.186v-60.37h-8.186v60.37Zm42.039-8.06a22.1,22.1,0,0,1-7.163-5.16,22.69,22.69,0,0,1-4.6-7.63,27.69,27.69,0,0,1,0-18.67,22.69,22.69,0,0,1,4.6-7.63,22.611,22.611,0,0,1,33.087,0,22.723,22.723,0,0,1,4.6,7.63,27.69,27.69,0,0,1,0,18.67,22.723,22.723,0,0,1-4.6,7.63A23.194,23.194,0,0,1,897.166,1283.79Zm22.086,7.17a29.5,29.5,0,0,0,9.935-6.7,30.905,30.905,0,0,0,6.481-10.06,34.675,34.675,0,0,0,0-25.07,30.905,30.905,0,0,0-6.481-10.06,29.647,29.647,0,0,0-9.935-6.7,34.431,34.431,0,0,0-25.411,0,29.627,29.627,0,0,0-9.935,6.7,30.821,30.821,0,0,0-6.48,10.06,34.675,34.675,0,0,0,0,25.07,30.821,30.821,0,0,0,6.48,10.06,29.48,29.48,0,0,0,9.935,6.7A34.431,34.431,0,0,0,919.252,1290.96Zm30.527,0.89h8.186v-49.63h0.171l33.6,49.63h10.406v-60.37h-8.189v49.63H993.78l-33.257-49.63H949.779v60.37Zm91.581,0h40.51v-7.67h-32.32v-19.36h28.65v-7.67h-28.65v-18h30.78v-7.67h-38.97v60.37Zm58.93-52.7h12.27q7.335,0,11.94,2.43a21.069,21.069,0,0,1,7.21,5.93,20.421,20.421,0,0,1,3.54,7.38,29.593,29.593,0,0,1,.94,6.78,22.346,22.346,0,0,1-2.05,9.84,20.275,20.275,0,0,1-5.54,7.04,23.923,23.923,0,0,1-8.15,4.22,33.75,33.75,0,0,1-9.85,1.41h-10.31v-45.03Zm-8.19,52.7h19.7a37.02,37.02,0,0,0,14.28-2.56,30.866,30.866,0,0,0,10.36-6.78,28.184,28.184,0,0,0,6.31-9.63,30.374,30.374,0,0,0,2.13-11.21,35.557,35.557,0,0,0-.59-6.14,33.576,33.576,0,0,0-1.96-6.66,30.378,30.378,0,0,0-3.71-6.48,24.761,24.761,0,0,0-5.89-5.58,29.949,29.949,0,0,0-8.35-3.88,38.97,38.97,0,0,0-11.22-1.45H1092.1v60.37Zm64.55,0h8.19v-60.37h-8.19v60.37Zm36.33,0h8.18v-52.7h19.45v-7.67h-47.08v7.67h19.45v52.7Zm36.32,0h8.19v-60.37h-8.19v60.37Zm42.04-8.06a22.15,22.15,0,0,1-7.16-5.16,22.537,22.537,0,0,1-4.6-7.63,27.546,27.546,0,0,1,0-18.67,22.537,22.537,0,0,1,4.6-7.63,22.622,22.622,0,0,1,33.09,0,22.7,22.7,0,0,1,4.6,7.63,27.706,27.706,0,0,1,0,18.67,22.7,22.7,0,0,1-4.6,7.63A23.2,23.2,0,0,1,1271.34,1283.79Zm22.09,7.17a29.459,29.459,0,0,0,9.93-6.7,30.757,30.757,0,0,0,6.48-10.06,34.606,34.606,0,0,0,0-25.07,30.757,30.757,0,0,0-6.48-10.06,29.605,29.605,0,0,0-9.93-6.7,34.428,34.428,0,0,0-25.41,0,29.648,29.648,0,0,0-9.94,6.7,30.757,30.757,0,0,0-6.48,10.06,34.744,34.744,0,0,0,0,25.07,30.757,30.757,0,0,0,6.48,10.06,29.5,29.5,0,0,0,9.94,6.7A34.428,34.428,0,0,0,1293.43,1290.96Zm30.53,0.89h8.18v-49.63h0.17l33.6,49.63h10.4v-60.37h-8.18v49.63h-0.17l-33.26-49.63h-10.74v60.37Zm109.91-8.06a22.15,22.15,0,0,1-7.16-5.16,22.72,22.72,0,0,1-4.61-7.63,27.706,27.706,0,0,1,0-18.67,22.72,22.72,0,0,1,4.61-7.63,22.622,22.622,0,0,1,33.09,0,22.86,22.86,0,0,1,4.6,7.63,27.706,27.706,0,0,1,0,18.67,22.86,22.86,0,0,1-4.6,7.63A23.2,23.2,0,0,1,1433.87,1283.79Zm22.09,7.17a29.558,29.558,0,0,0,9.93-6.7,30.757,30.757,0,0,0,6.48-10.06,34.606,34.606,0,0,0,0-25.07,30.757,30.757,0,0,0-6.48-10.06,29.705,29.705,0,0,0-9.93-6.7,34.428,34.428,0,0,0-25.41,0,29.648,29.648,0,0,0-9.94,6.7,30.757,30.757,0,0,0-6.48,10.06,34.744,34.744,0,0,0,0,25.07,30.757,30.757,0,0,0,6.48,10.06,29.5,29.5,0,0,0,9.94,6.7A34.428,34.428,0,0,0,1455.96,1290.96Zm30.52,0.89h8.19v-26.09h27.72v-7.68h-27.72v-18.93h29.76v-7.67h-37.95v60.37ZM578.29,1416.39H623.4v-7.68H588.693l34.2-45.02v-7.67H579.313v7.67h33.342l-34.365,45.02v7.68Zm55.6,0h40.505v-7.68H642.073v-19.35h28.652v-7.68H642.073v-17.99h30.784v-7.67h-38.97v60.37Zm52.1,0h8.187v-60.37h-8.187v60.37Zm18.76-6.82a18.144,18.144,0,0,0,8.272,6.31,29.852,29.852,0,0,0,11,2.04,25.791,25.791,0,0,0,8.186-1.27,20.023,20.023,0,0,0,6.652-3.67,17.337,17.337,0,0,0,4.477-5.89,18.019,18.019,0,0,0,1.663-7.84c0-3.64-.74-6.49-2.218-8.57a16.707,16.707,0,0,0-5.5-4.95,30.661,30.661,0,0,0-7.163-2.85,66.407,66.407,0,0,1-7.163-2.31,17.234,17.234,0,0,1-5.5-3.32,7.617,7.617,0,0,1-2.217-5.88,9.293,9.293,0,0,1,.554-2.99,8.15,8.15,0,0,1,1.919-3.03,10.331,10.331,0,0,1,3.624-2.3,15.446,15.446,0,0,1,5.671-.89,13.719,13.719,0,0,1,6.395,1.45,10.985,10.985,0,0,1,4.349,3.83l6.652-6.05a16.234,16.234,0,0,0-7.931-5.54,32.571,32.571,0,0,0-9.465-1.37,23.8,23.8,0,0,0-9.338,1.66,20.006,20.006,0,0,0-6.353,4.14,16.1,16.1,0,0,0-4.775,11.09q0,5.88,2.217,9.33a17.489,17.489,0,0,0,5.5,5.5,29,29,0,0,0,7.163,3.2c2.587,0.77,4.974,1.56,7.163,2.39a19.122,19.122,0,0,1,5.5,3.07,6.521,6.521,0,0,1,2.217,5.33,8.4,8.4,0,0,1-1.109,4.35,10.427,10.427,0,0,1-2.857,3.15,12.841,12.841,0,0,1-3.88,1.92,14.372,14.372,0,0,1-4.178.64,16.986,16.986,0,0,1-7.12-1.58,13.407,13.407,0,0,1-5.671-4.9Zm47.412,0a18.144,18.144,0,0,0,8.272,6.31,29.852,29.852,0,0,0,11,2.04,25.8,25.8,0,0,0,8.187-1.27,20.028,20.028,0,0,0,6.651-3.67,17.337,17.337,0,0,0,4.477-5.89,18.019,18.019,0,0,0,1.663-7.84c0-3.64-.74-6.49-2.217-8.57a16.711,16.711,0,0,0-5.5-4.95,30.643,30.643,0,0,0-7.163-2.85,66.407,66.407,0,0,1-7.163-2.31,17.234,17.234,0,0,1-5.5-3.32,7.617,7.617,0,0,1-2.217-5.88,9.293,9.293,0,0,1,.554-2.99,8.15,8.15,0,0,1,1.919-3.03,10.331,10.331,0,0,1,3.624-2.3,15.446,15.446,0,0,1,5.671-.89,13.716,13.716,0,0,1,6.395,1.45,10.985,10.985,0,0,1,4.349,3.83l6.652-6.05a16.234,16.234,0,0,0-7.931-5.54,32.571,32.571,0,0,0-9.465-1.37,23.8,23.8,0,0,0-9.338,1.66,19.99,19.99,0,0,0-6.352,4.14,16.1,16.1,0,0,0-4.776,11.09q0,5.88,2.217,9.33a17.489,17.489,0,0,0,5.5,5.5,29,29,0,0,0,7.163,3.2c2.587,0.77,4.974,1.56,7.163,2.39a19.122,19.122,0,0,1,5.5,3.07,6.521,6.521,0,0,1,2.217,5.33,8.4,8.4,0,0,1-1.109,4.35,10.427,10.427,0,0,1-2.857,3.15,12.847,12.847,0,0,1-3.879,1.92,14.379,14.379,0,0,1-4.179.64,16.986,16.986,0,0,1-7.12-1.58,13.407,13.407,0,0,1-5.671-4.9Zm91.073,6.82h7.674l23.792-60.37h-8.954l-18.419,49.11h-0.171l-17.737-49.11h-9.465Zm46.9-53.21h10.745a29.933,29.933,0,0,1,4.732.38,12.88,12.88,0,0,1,4.179,1.41,7.678,7.678,0,0,1,2.942,2.94,11.791,11.791,0,0,1,0,9.98,7.678,7.678,0,0,1-2.942,2.94,12.88,12.88,0,0,1-4.179,1.41,29.933,29.933,0,0,1-4.732.38H890.132v-19.44Zm-8.186,53.21h8.186v-26.61h9.124l15.35,26.61h10.233l-17.14-27.54a16.293,16.293,0,0,0,6.182-1.84,16.694,16.694,0,0,0,4.69-3.66,15.793,15.793,0,0,0,2.942-4.86,15.636,15.636,0,0,0,1.023-5.59,21.515,21.515,0,0,0-.853-5.84,13.638,13.638,0,0,0-3.027-5.46,16.345,16.345,0,0,0-5.926-4.01,24.878,24.878,0,0,0-9.551-1.57H881.946v60.37Zm94.141-8.06a22.236,22.236,0,0,1-7.163-5.16,22.709,22.709,0,0,1-4.605-7.63,27.706,27.706,0,0,1,0-18.67,22.754,22.754,0,0,1,4.605-7.64,22.61,22.61,0,0,1,33.086,0,22.929,22.929,0,0,1,4.61,7.64,27.706,27.706,0,0,1,0,18.67,22.883,22.883,0,0,1-4.61,7.63A23.193,23.193,0,0,1,976.087,1408.33Zm22.086,7.16a29.641,29.641,0,0,0,9.937-6.69,31.191,31.191,0,0,0,6.48-10.06,34.744,34.744,0,0,0,0-25.07,31.083,31.083,0,0,0-6.48-10.06,29.518,29.518,0,0,0-9.937-6.7,34.431,34.431,0,0,0-25.411,0,29.48,29.48,0,0,0-9.935,6.7,30.84,30.84,0,0,0-6.481,10.06,34.675,34.675,0,0,0,0,25.07,30.946,30.946,0,0,0,6.481,10.06,29.6,29.6,0,0,0,9.935,6.69A34.431,34.431,0,0,0,998.173,1415.49Zm30.527,0.9h8.19v-49.63h0.17l33.59,49.63h10.41v-60.37h-8.19v49.63h-0.17l-33.26-49.63H1028.7v60.37Zm67.88,0h40.5v-7.68h-32.32v-19.35h28.65v-7.68h-28.65v-17.99h30.79v-7.67h-38.97v60.37Zm83.99-53.21h10.74a30,30,0,0,1,4.74.38,12.968,12.968,0,0,1,4.18,1.41,7.687,7.687,0,0,1,2.94,2.94,11.771,11.771,0,0,1,0,9.98,7.687,7.687,0,0,1-2.94,2.94,12.968,12.968,0,0,1-4.18,1.41,30,30,0,0,1-4.74.38h-10.74v-19.44Zm-8.19,53.21h8.19v-26.61h13.05a24.879,24.879,0,0,0,9.55-1.57,16.212,16.212,0,0,0,5.92-4.01,13.669,13.669,0,0,0,3.03-5.46,20.487,20.487,0,0,0,0-11.68,13.669,13.669,0,0,0-3.03-5.46,16.336,16.336,0,0,0-5.92-4.01,24.879,24.879,0,0,0-9.55-1.57h-21.24v60.37Zm50.57,0h35.9v-7.68h-27.71v-52.69h-8.19v60.37Zm43.15-60.37v38.28a24.842,24.842,0,0,0,1.79,9.6,22.76,22.76,0,0,0,4.94,7.46,22.024,22.024,0,0,0,7.42,4.86,25.8,25.8,0,0,0,18.42,0,21.925,21.925,0,0,0,7.42-4.86,22.943,22.943,0,0,0,4.95-7.46,24.842,24.842,0,0,0,1.79-9.6v-38.28h-8.19v37a23.414,23.414,0,0,1-.77,5.85,16.928,16.928,0,0,1-2.55,5.58,13.938,13.938,0,0,1-4.69,4.18,16.655,16.655,0,0,1-14.33,0,13.843,13.843,0,0,1-4.69-4.18,16.951,16.951,0,0,1-2.56-5.58,23.887,23.887,0,0,1-.77-5.85v-37h-8.18Zm56.19,53.55a18.2,18.2,0,0,0,8.27,6.31,29.9,29.9,0,0,0,11.01,2.04,25.808,25.808,0,0,0,8.18-1.27,19.944,19.944,0,0,0,6.65-3.67,17.307,17.307,0,0,0,4.48-5.89,17.989,17.989,0,0,0,1.66-7.84c0-3.64-.74-6.49-2.21-8.57a16.8,16.8,0,0,0-5.5-4.95,30.663,30.663,0,0,0-7.17-2.85,66.275,66.275,0,0,1-7.16-2.31,17.245,17.245,0,0,1-5.5-3.32,7.615,7.615,0,0,1-2.22-5.88,9.312,9.312,0,0,1,.56-2.99,8.136,8.136,0,0,1,1.91-3.03,10.34,10.34,0,0,1,3.63-2.3,15.437,15.437,0,0,1,5.67-.89,13.743,13.743,0,0,1,6.4,1.45,10.978,10.978,0,0,1,4.34,3.83l6.66-6.05a16.247,16.247,0,0,0-7.94-5.54,32.5,32.5,0,0,0-9.46-1.37,23.815,23.815,0,0,0-9.34,1.66,19.969,19.969,0,0,0-6.35,4.14,16.187,16.187,0,0,0-4.78,11.09q0,5.88,2.22,9.33a17.5,17.5,0,0,0,5.5,5.5,29.131,29.131,0,0,0,7.16,3.2c2.59,0.77,4.98,1.56,7.17,2.39a19.237,19.237,0,0,1,5.5,3.07,6.538,6.538,0,0,1,2.21,5.33,8.47,8.47,0,0,1-1.1,4.35,10.515,10.515,0,0,1-2.86,3.15,12.91,12.91,0,0,1-3.88,1.92,14.35,14.35,0,0,1-4.18.64,17,17,0,0,1-7.12-1.58,13.434,13.434,0,0,1-5.67-4.9Z" transform="translate(-422.531 -1229.94)"/>
</svg>
