<svg xmlns="http://www.w3.org/2000/svg" width="536.061" height="114.38" viewBox="0 0 536.061 114.38">
  <metadata><?xpacket begin="﻿" id="W5M0MpCehiHzreSzNTczkc9d"?>
<x:xmpmeta xmlns:x="adobe:ns:meta/" x:xmptk="Adobe XMP Core 5.6-c140 79.160451, 2017/05/06-01:08:21        ">
   <rdf:RDF xmlns:rdf="http://www.w3.org/1999/02/22-rdf-syntax-ns#">
      <rdf:Description rdf:about=""/>
   </rdf:RDF>
</x:xmpmeta>
                                                                                                    
                                                                                                    
                                                                                                    
                                                                                                    
                                                                                                    
                                                                                                    
                                                                                                    
                                                                                                    
                                                                                                    
                                                                                                    
                                                                                                    
                                                                                                    
                                                                                                    
                                                                                                    
                                                                                                    
                                                                                                    
                                                                                                    
                                                                                                    
                                                                                                    
                                                                                                    
                           
<?xpacket end="w"?></metadata>
<defs>
    <style>
      .cls-1 {
        fill: #111;
        fill-rule: evenodd;
      }
    </style>
  </defs>
  <path id="PowerRay" class="cls-1" d="M710.413,1218.14v-24H721.27a57.141,57.141,0,0,1,6.273.36,18.151,18.151,0,0,1,5.911,1.63,11.154,11.154,0,0,1,4.343,3.62,10.66,10.66,0,0,1,1.689,6.33,10.809,10.809,0,0,1-1.87,6.76,11.4,11.4,0,0,1-4.825,3.61,20.576,20.576,0,0,1-6.454,1.45q-3.5.24-6.755,0.24h-9.169Zm-15.2,48.38h15.2v-35.35H721.27a84.876,84.876,0,0,0,12.968-.96,31.385,31.385,0,0,0,10.918-3.68,19.853,19.853,0,0,0,7.479-7.66q2.774-4.95,2.774-13.03a24.592,24.592,0,0,0-2.593-11.88,20.721,20.721,0,0,0-6.937-7.6,29.192,29.192,0,0,0-10.072-4.04,57.15,57.15,0,0,0-11.883-1.21h-28.71v85.41Zm82.692-35.47a16.357,16.357,0,0,1,3.378-5.55,17.111,17.111,0,0,1,24.971,0,16.421,16.421,0,0,1,3.378,5.55,19.092,19.092,0,0,1,0,13.03,16.421,16.421,0,0,1-3.378,5.55,17.111,17.111,0,0,1-24.971,0,16.357,16.357,0,0,1-3.378-5.55A19.092,19.092,0,0,1,777.906,1231.05Zm-13.149,19a28.758,28.758,0,0,0,16.708,15.74,35.97,35.97,0,0,0,24.609,0,28.765,28.765,0,0,0,16.708-15.74,32.752,32.752,0,0,0,0-24.97,29.166,29.166,0,0,0-6.7-9.59,29.462,29.462,0,0,0-10.012-6.15,35.97,35.97,0,0,0-24.609,0,29.457,29.457,0,0,0-10.013,6.15,29.119,29.119,0,0,0-6.7,9.59A32.752,32.752,0,0,0,764.757,1250.05Zm83.9,16.47h14.958l12.184-39.57h0.242l13.752,39.57h14.355l19.663-57.91h-14.6l-12.063,40.54h-0.241l-12.546-40.54H868.68l-11.7,40.54h-0.242l-12.545-40.54H828.509Zm92.886-34.75a16.7,16.7,0,0,1,4.644-10.01q3.8-3.735,10.314-3.74,6.876,0,10.736,3.68t3.981,10.07H941.541Zm44.151,10.86v-3.98a41.687,41.687,0,0,0-1.99-13.45,28.122,28.122,0,0,0-5.549-9.83,23.764,23.764,0,0,0-8.565-6.09,28.087,28.087,0,0,0-11.038-2.11,34.7,34.7,0,0,0-12.3,2.17,29.443,29.443,0,0,0-10.012,6.15,29.1,29.1,0,0,0-6.695,9.59,32.752,32.752,0,0,0,0,24.97,28.76,28.76,0,0,0,16.707,15.74,34.7,34.7,0,0,0,12.3,2.17,33.4,33.4,0,0,0,13.149-2.65,29.342,29.342,0,0,0,11.339-8.93l-10.374-7.84a24.981,24.981,0,0,1-6.454,5.61,17.258,17.258,0,0,1-9.108,2.23,15.865,15.865,0,0,1-10.5-3.61,14.739,14.739,0,0,1-5.066-10.14h44.151Zm11.1,23.89h14.471v-31.01a18.464,18.464,0,0,1,.55-3.61,14.135,14.135,0,0,1,2.17-4.83,14.78,14.78,0,0,1,4.7-4.28,15.537,15.537,0,0,1,8.15-1.87,20.22,20.22,0,0,1,3.43.3c1.17,0.2,2.36.46,3.56,0.78v-13.99c-0.88-.24-1.75-0.44-2.59-0.6a13.944,13.944,0,0,0-2.59-.24,19.045,19.045,0,0,0-10.26,2.77,18.143,18.143,0,0,0-6.87,7.84h-0.25v-9.17H996.789v57.91Zm61.041-49.22v-23.16h13.15a51.348,51.348,0,0,1,5.97.36,18.685,18.685,0,0,1,5.61,1.51,9.724,9.724,0,0,1,4.1,3.44,10.515,10.515,0,0,1,1.57,6.03,11.16,11.16,0,0,1-1.69,6.57,10.222,10.222,0,0,1-4.4,3.5,19.791,19.791,0,0,1-5.98,1.45q-3.255.3-6.51,0.3h-11.82Zm-15.2,49.22h15.2v-36.19h11.1l19.78,36.19h18.34l-22.68-37.76q9.525-1.32,14.65-7.6t5.13-15.56a24.146,24.146,0,0,0-2.65-11.94,20.543,20.543,0,0,0-7.12-7.48,30.435,30.435,0,0,0-10.19-3.92,60.018,60.018,0,0,0-11.89-1.15h-29.67v85.41Zm107.6-22.68q0,6.15-3.56,9.71t-11.04,3.56a15.882,15.882,0,0,1-3.61-.42,10.043,10.043,0,0,1-3.26-1.39,8.1,8.1,0,0,1-2.35-2.35,6.123,6.123,0,0,1-.91-3.44,5.8,5.8,0,0,1,2.29-4.89,16.221,16.221,0,0,1,5.61-2.65,35.658,35.658,0,0,1,7.06-1.15q3.735-.24,6.75-0.24h3.02v3.26Zm0.85,22.68h13.02v-33.3c0-1.36-.04-2.95-0.12-4.76a31.5,31.5,0,0,0-.78-5.61,23.358,23.358,0,0,0-2.17-5.73,15.855,15.855,0,0,0-4.29-5.01,22.9,22.9,0,0,0-6.99-3.56,33.754,33.754,0,0,0-10.38-1.38,41.509,41.509,0,0,0-13.33,2.17,28.082,28.082,0,0,0-11.28,7.11l7.6,7.6a21.985,21.985,0,0,1,6.88-4.4,22.506,22.506,0,0,1,8.57-1.63,15.83,15.83,0,0,1,9.53,2.72q3.735,2.715,3.74,8.14v1.57h-3.62q-3.63,0-7.72.18a69.462,69.462,0,0,0-8.15.84,46.2,46.2,0,0,0-7.78,1.99,23.27,23.27,0,0,0-6.57,3.56,16.581,16.581,0,0,0-4.53,5.55,17.6,17.6,0,0,0-1.68,8.02,15.445,15.445,0,0,0,1.8,7.6,16.84,16.84,0,0,0,4.77,5.43,20.952,20.952,0,0,0,6.75,3.26,28.392,28.392,0,0,0,7.79,1.08,24.932,24.932,0,0,0,10.61-2.23,18.59,18.59,0,0,0,7.96-7.17h0.37v7.96Zm43.06,0.48-2.78,6.88c-0.64,1.52-1.24,2.83-1.8,3.92a8.274,8.274,0,0,1-2.12,2.65,8.176,8.176,0,0,1-3.07,1.51,17.761,17.761,0,0,1-4.47.48,17.354,17.354,0,0,1-3.8-.42,30.651,30.651,0,0,1-3.55-1.03l-1.81,13.03a42.621,42.621,0,0,0,11.09,1.45,28.939,28.939,0,0,0,8.27-1.03,16.694,16.694,0,0,0,5.97-3.13,20.72,20.72,0,0,0,4.4-5.19,44.134,44.134,0,0,0,3.44-7.18l27.38-70.33h-15.08l-14.47,40.17h-0.24l-16.17-40.17h-15.92Z" transform="translate(-695.219 -1181.09)"/>
</svg>
