<svg id="组_66" data-name="组 66" xmlns="http://www.w3.org/2000/svg" width="85.312" height="84.81" viewBox="0 0 85.312 84.81">
  <metadata><?xpacket begin="﻿" id="W5M0MpCehiHzreSzNTczkc9d"?>
<x:xmpmeta xmlns:x="adobe:ns:meta/" x:xmptk="Adobe XMP Core 5.6-c140 79.160451, 2017/05/06-01:08:21        ">
   <rdf:RDF xmlns:rdf="http://www.w3.org/1999/02/22-rdf-syntax-ns#">
      <rdf:Description rdf:about=""/>
   </rdf:RDF>
</x:xmpmeta>
                                                                                                    
                                                                                                    
                                                                                                    
                                                                                                    
                                                                                                    
                                                                                                    
                                                                                                    
                                                                                                    
                                                                                                    
                                                                                                    
                                                                                                    
                                                                                                    
                                                                                                    
                                                                                                    
                                                                                                    
                                                                                                    
                                                                                                    
                                                                                                    
                                                                                                    
                                                                                                    
                           
<?xpacket end="w"?></metadata>
<defs>
    <style>
      .cls-1, .cls-2 {
        fill: #fff;
        fill-rule: evenodd;
      }

      .cls-1 {
        fill-opacity: 0.15;
        stroke: #fff;
        stroke-width: 3px;
      }
    </style>
  </defs>
  <path id="椭圆_11_拷贝_2" data-name="椭圆 11 拷贝 2" class="cls-1" d="M783.25,3171a40.906,40.906,0,1,1-41.156,40.91A41.03,41.03,0,0,1,783.25,3171Z" transform="translate(-740.594 -3169.5)"/>
  <path id="形状_13" data-name="形状 13" class="cls-2" d="M791.746,3225.13h-25.8a2.338,2.338,0,0,1-2.33-2.34v-20.86a2.338,2.338,0,0,1,2.33-2.34h25.8a2.338,2.338,0,0,1,2.33,2.34v7.96l12.815-8.79v22.52l-12.815-8.79v7.96A2.338,2.338,0,0,1,791.746,3225.13Zm-25.8-23.53a0.335,0.335,0,0,0-.333.33v20.86a0.335,0.335,0,0,0,.333.33h25.8a0.335,0.335,0,0,0,.333-0.33v-20.86a0.335,0.335,0,0,0-.333-0.33h-25.8Zm28.067,10.76,10.878,7.46V3204.9Z" transform="translate(-740.594 -3169.5)"/>
</svg>
