<svg id="组_68" data-name="组 68" xmlns="http://www.w3.org/2000/svg" width="85.31" height="84.81" viewBox="0 0 85.31 84.81">
  <metadata><?xpacket begin="﻿" id="W5M0MpCehiHzreSzNTczkc9d"?>
<x:xmpmeta xmlns:x="adobe:ns:meta/" x:xmptk="Adobe XMP Core 5.6-c140 79.160451, 2017/05/06-01:08:21        ">
   <rdf:RDF xmlns:rdf="http://www.w3.org/1999/02/22-rdf-syntax-ns#">
      <rdf:Description rdf:about=""/>
   </rdf:RDF>
</x:xmpmeta>
                                                                                                    
                                                                                                    
                                                                                                    
                                                                                                    
                                                                                                    
                                                                                                    
                                                                                                    
                                                                                                    
                                                                                                    
                                                                                                    
                                                                                                    
                                                                                                    
                                                                                                    
                                                                                                    
                                                                                                    
                                                                                                    
                                                                                                    
                                                                                                    
                                                                                                    
                                                                                                    
                           
<?xpacket end="w"?></metadata>
<defs>
    <style>
      .cls-1, .cls-2 {
        fill: #fff;
        fill-rule: evenodd;
      }

      .cls-1 {
        fill-opacity: 0.15;
        stroke: #fff;
        stroke-width: 3px;
      }
    </style>
  </defs>
  <path id="椭圆_11_拷贝_4" data-name="椭圆 11 拷贝 4" class="cls-1" d="M1149.66,3171a40.906,40.906,0,1,1-41.16,40.91A41.024,41.024,0,0,1,1149.66,3171Z" transform="translate(-1107 -3169.5)"/>
  <path id="形状_15" data-name="形状 15" class="cls-2" d="M1148.89,3220.63a6.13,6.13,0,1,1,6.1-6.13A6.122,6.122,0,0,1,1148.89,3220.63Zm0-10.13a4,4,0,1,0,3.98,4A3.986,3.986,0,0,0,1148.89,3210.5Zm0,12.58a8.58,8.58,0,1,1,8.53-8.58A8.559,8.559,0,0,1,1148.89,3223.08Zm0-15.98a7.4,7.4,0,1,0,7.35,7.4A7.377,7.377,0,0,0,1148.89,3207.1Zm16.92-6.02h-7.92l-2.46-3.55h-12.04l-2.46,3.55h-7.68a3.434,3.434,0,0,0-3.41,3.44v19.96a3.427,3.427,0,0,0,3.41,3.44h32.56a3.429,3.429,0,0,0,3.42-3.44v-19.96A3.436,3.436,0,0,0,1165.81,3201.08Zm-21.32-1.41h9.84l0.98,1.41h-11.8Zm22.62,24.81a1.306,1.306,0,0,1-1.3,1.31h-32.56a1.3,1.3,0,0,1-1.29-1.31v-19.96a1.3,1.3,0,0,1,1.29-1.3h32.56a1.3,1.3,0,0,1,1.3,1.3v19.96Z" transform="translate(-1107 -3169.5)"/>
</svg>
