<svg id="组_65" data-name="组 65" xmlns="http://www.w3.org/2000/svg" width="85.312" height="84.81" viewBox="0 0 85.312 84.81">
  <metadata><?xpacket begin="﻿" id="W5M0MpCehiHzreSzNTczkc9d"?>
<x:xmpmeta xmlns:x="adobe:ns:meta/" x:xmptk="Adobe XMP Core 5.6-c140 79.160451, 2017/05/06-01:08:21        ">
   <rdf:RDF xmlns:rdf="http://www.w3.org/1999/02/22-rdf-syntax-ns#">
      <rdf:Description rdf:about=""/>
   </rdf:RDF>
</x:xmpmeta>
                                                                                                    
                                                                                                    
                                                                                                    
                                                                                                    
                                                                                                    
                                                                                                    
                                                                                                    
                                                                                                    
                                                                                                    
                                                                                                    
                                                                                                    
                                                                                                    
                                                                                                    
                                                                                                    
                                                                                                    
                                                                                                    
                                                                                                    
                                                                                                    
                                                                                                    
                                                                                                    
                           
<?xpacket end="w"?></metadata>
<defs>
    <style>
      .cls-1, .cls-2 {
        fill: #fff;
        fill-rule: evenodd;
      }

      .cls-1 {
        fill-opacity: 0.15;
        stroke: #fff;
        stroke-width: 3px;
      }
    </style>
  </defs>
  <path id="椭圆_11_拷贝" data-name="椭圆 11 拷贝" class="cls-1" d="M607.156,3171A40.906,40.906,0,1,1,566,3211.91,41.03,41.03,0,0,1,607.156,3171Z" transform="translate(-564.5 -3169.5)"/>
  <path id="形状_12" data-name="形状 12" class="cls-2" d="M607.51,3196.23a16.56,16.56,0,1,0,16.454,16.56,16.5,16.5,0,0,0-16.454-16.56m0,2.37a14.13,14.13,0,0,1,14.055,13.01h-28.1a14.138,14.138,0,0,1,14.049-13.01m4.12,27.77a13.311,13.311,0,0,1-8.233,0v-2.82a2.316,2.316,0,0,1,.24-1.01,3.076,3.076,0,0,1,.836-1.04,4.546,4.546,0,0,1,1.422-.77,5.538,5.538,0,0,1,1.615-.25,5.205,5.205,0,0,1,1.621.25,5.355,5.355,0,0,1,.767.33,3.83,3.83,0,0,1,.655.44,3.468,3.468,0,0,1,.5.51,2.591,2.591,0,0,1,.334.53,2.316,2.316,0,0,1,.24,1.01v2.82Zm1.761-.67v-2.15c0-3.13-3.166-4.84-5.881-4.84s-5.874,1.71-5.874,4.84v2.15a14.2,14.2,0,0,1-8.175-11.73h28.1a14.193,14.193,0,0,1-8.174,11.73" transform="translate(-564.5 -3169.5)"/>
</svg>
