<svg id="组_67" data-name="组 67" xmlns="http://www.w3.org/2000/svg" width="85.315" height="84.81" viewBox="0 0 85.315 84.81">
  <metadata><?xpacket begin="﻿" id="W5M0MpCehiHzreSzNTczkc9d"?>
<x:xmpmeta xmlns:x="adobe:ns:meta/" x:xmptk="Adobe XMP Core 5.6-c140 79.160451, 2017/05/06-01:08:21        ">
   <rdf:RDF xmlns:rdf="http://www.w3.org/1999/02/22-rdf-syntax-ns#">
      <rdf:Description rdf:about=""/>
   </rdf:RDF>
</x:xmpmeta>
                                                                                                    
                                                                                                    
                                                                                                    
                                                                                                    
                                                                                                    
                                                                                                    
                                                                                                    
                                                                                                    
                                                                                                    
                                                                                                    
                                                                                                    
                                                                                                    
                                                                                                    
                                                                                                    
                                                                                                    
                                                                                                    
                                                                                                    
                                                                                                    
                                                                                                    
                                                                                                    
                           
<?xpacket end="w"?></metadata>
<defs>
    <style>
      .cls-1, .cls-2 {
        fill: #fff;
        fill-rule: evenodd;
      }

      .cls-1 {
        fill-opacity: 0.15;
        stroke: #fff;
        stroke-width: 3px;
      }
    </style>
  </defs>
  <path id="椭圆_11_拷贝_3" data-name="椭圆 11 拷贝 3" class="cls-1" d="M960.281,3171a40.906,40.906,0,1,1-41.156,40.91A41.032,41.032,0,0,1,960.281,3171Z" transform="translate(-917.625 -3169.5)"/>
  <path id="形状_14" data-name="形状 14" class="cls-2" d="M941.378,3206.66v-5.16a1.3,1.3,0,0,1,1.294-1.3h5.344v-2.13h-5.344a3.426,3.426,0,0,0-3.412,3.43v5.16h2.118Zm39.033,0v-5.16a1.3,1.3,0,0,0-1.294-1.3h-5.343v-2.13h5.343a3.426,3.426,0,0,1,3.413,3.43v5.16h-2.119Zm-39.033,11.15v5.16a1.3,1.3,0,0,0,1.294,1.3h5.344v2.13h-5.344a3.426,3.426,0,0,1-3.412-3.43v-5.16h2.118Zm39.033,0v5.16a1.3,1.3,0,0,1-1.294,1.3h-5.343v2.13h5.343a3.426,3.426,0,0,0,3.413-3.43v-5.16h-2.119Zm-15.85-14.92H948.955a2.426,2.426,0,0,0-2.416,2.43v14.13a2.435,2.435,0,0,0,2.416,2.44H972a2.434,2.434,0,0,0,2.416-2.44v-14.13a2.426,2.426,0,0,0-2.416-2.43h-7.435Zm8.09,16.3a0.925,0.925,0,0,1-.915.93h-22.52a0.926,0.926,0,0,1-.916-0.93v-13.61a0.924,0.924,0,0,1,.916-0.92h22.52a0.923,0.923,0,0,1,.915.92v13.61Z" transform="translate(-917.625 -3169.5)"/>
</svg>
