<svg id="组_69" data-name="组 69" xmlns="http://www.w3.org/2000/svg" width="85.31" height="84.81" viewBox="0 0 85.31 84.81">
  <metadata><?xpacket begin="﻿" id="W5M0MpCehiHzreSzNTczkc9d"?>
<x:xmpmeta xmlns:x="adobe:ns:meta/" x:xmptk="Adobe XMP Core 5.6-c140 79.160451, 2017/05/06-01:08:21        ">
   <rdf:RDF xmlns:rdf="http://www.w3.org/1999/02/22-rdf-syntax-ns#">
      <rdf:Description rdf:about=""/>
   </rdf:RDF>
</x:xmpmeta>
                                                                                                    
                                                                                                    
                                                                                                    
                                                                                                    
                                                                                                    
                                                                                                    
                                                                                                    
                                                                                                    
                                                                                                    
                                                                                                    
                                                                                                    
                                                                                                    
                                                                                                    
                                                                                                    
                                                                                                    
                                                                                                    
                                                                                                    
                                                                                                    
                                                                                                    
                                                                                                    
                           
<?xpacket end="w"?></metadata>
<defs>
    <style>
      .cls-1, .cls-2 {
        fill: #fff;
        fill-rule: evenodd;
      }

      .cls-1 {
        fill-opacity: 0.15;
        stroke: #fff;
        stroke-width: 3px;
      }
    </style>
  </defs>
  <path id="椭圆_11_拷贝_5" data-name="椭圆 11 拷贝 5" class="cls-1" d="M1328.44,3171a40.906,40.906,0,1,1-41.16,40.91A41.024,41.024,0,0,1,1328.44,3171Z" transform="translate(-1285.78 -3169.5)"/>
  <path id="形状_16" data-name="形状 16" class="cls-2" d="M1338.19,3229.62h-19.92c-3.41,0-4.73-1.34-4.73-4.78v-18.32a5.344,5.344,0,0,1,1.74-4.1c1.56-1.54,4.05-4.05,5.56-5.59a5.112,5.112,0,0,1,4.37-1.59h13.27c2.3,0,4.44.51,4.44,4.19v25.41C1342.92,3227.94,1342.16,3229.62,1338.19,3229.62Zm-13.37-32.52a3.091,3.091,0,0,0-2.67,1.04c-1.51,1.54-4,4.06-5.57,5.61a3.49,3.49,0,0,0-1.19,2.7v18.39c0,2.39.51,2.91,2.88,2.91h19.92c2.65,0,2.88-.47,2.88-2.91v-25.41c0-1.91-.46-2.32-2.59-2.32l-13.29-.01h-0.37Zm13.76,10.52h-2.32v-5.73h2.32v5.73Zm-4.18,0h-2.32v-5.73h2.32v5.73Zm-4.18,0h-2.32v-5.73h2.32v5.73Zm6.68,5.97h-17.19a1.782,1.782,0,0,0-1.77,1.78v8.4a1.782,1.782,0,0,0,1.77,1.78h17.19a1.773,1.773,0,0,0,1.76-1.78v-8.4A1.773,1.773,0,0,0,1336.9,3213.59Zm-17.19,10.77a0.591,0.591,0,0,1-.59-0.59v-8.4a0.591,0.591,0,0,1,.59-0.59h3.32v9.58h-3.32Zm4.49,0v-9.58h3.7v9.58h-3.7Zm4.94,0h-0.06v-9.58h3.69v9.58h-3.63Zm8.35-.59a0.591,0.591,0,0,1-.59.59h-2.95v-9.58h2.95a0.591,0.591,0,0,1,.59.59v8.4Z" transform="translate(-1285.78 -3169.5)"/>
</svg>
