<svg xmlns="http://www.w3.org/2000/svg" width="1076.31" height="97.468" viewBox="0 0 1076.31 97.468">
  <metadata><?xpacket begin="﻿" id="W5M0MpCehiHzreSzNTczkc9d"?>
<x:xmpmeta xmlns:x="adobe:ns:meta/" x:xmptk="Adobe XMP Core 5.6-c140 79.160451, 2017/05/06-01:08:21        ">
   <rdf:RDF xmlns:rdf="http://www.w3.org/1999/02/22-rdf-syntax-ns#">
      <rdf:Description rdf:about=""/>
   </rdf:RDF>
</x:xmpmeta>
                                                                                                    
                                                                                                    
                                                                                                    
                                                                                                    
                                                                                                    
                                                                                                    
                                                                                                    
                                                                                                    
                                                                                                    
                                                                                                    
                                                                                                    
                                                                                                    
                                                                                                    
                                                                                                    
                                                                                                    
                                                                                                    
                                                                                                    
                                                                                                    
                                                                                                    
                                                                                                    
                           
<?xpacket end="w"?></metadata>
<defs>
    <style>
      .cls-1 {
        fill: #211714;
        fill-rule: evenodd;
      }
    </style>
  </defs>
  <path id="SPEED" class="cls-1" d="M495.825,399.905a32.965,32.965,0,0,0-12.382-7.338,45.9,45.9,0,0,0-14.217-2.227,47.027,47.027,0,0,0-12.579,1.7,33.761,33.761,0,0,0-10.942,5.176,26.971,26.971,0,0,0-7.73,8.713,24.992,24.992,0,0,0-2.949,12.448q0,8.256,3.276,13.169a25.787,25.787,0,0,0,8.124,7.862,44.568,44.568,0,0,0,10.614,4.652q5.764,1.7,10.613,3.6a28.976,28.976,0,0,1,8.124,4.652q3.274,2.751,3.276,7.862a10.7,10.7,0,0,1-1.441,5.569,12.308,12.308,0,0,1-3.8,4,17.854,17.854,0,0,1-5.241,2.359,21.848,21.848,0,0,1-5.766.786,22.271,22.271,0,0,1-10.417-2.555,20.806,20.806,0,0,1-7.927-7.141l-12.448,12.055a32.028,32.028,0,0,0,13.758,9.7,48.715,48.715,0,0,0,16.641,2.883,45.217,45.217,0,0,0,12.972-1.835,31.977,31.977,0,0,0,10.81-5.5,26.566,26.566,0,0,0,7.4-9.238,29.1,29.1,0,0,0,2.751-13.038q0-8.254-3.275-13.234a26.308,26.308,0,0,0-8.124-7.993,43.238,43.238,0,0,0-10.614-4.717q-5.768-1.7-10.614-3.538a32.155,32.155,0,0,1-8.124-4.324,8.5,8.5,0,0,1-3.275-7.207,10.78,10.78,0,0,1,1.31-5.438,10.963,10.963,0,0,1,3.472-3.734,15.191,15.191,0,0,1,4.848-2.1,23.454,23.454,0,0,1,5.569-.655,24.5,24.5,0,0,1,9.238,1.769,15.237,15.237,0,0,1,7.01,5.569Zm201.92,33.02V406.85h11.793a61.794,61.794,0,0,1,6.814.393,19.881,19.881,0,0,1,6.42,1.769,12.157,12.157,0,0,1,4.717,3.931,11.568,11.568,0,0,1,1.835,6.879q0,4.717-2.031,7.338a12.442,12.442,0,0,1-5.241,3.931,22.521,22.521,0,0,1-7.011,1.572q-3.8.264-7.337,0.262h-9.959Zm-16.51,52.544h16.51V447.077h11.793a91.448,91.448,0,0,0,14.086-1.049,33.93,33.93,0,0,0,11.858-4,21.568,21.568,0,0,0,8.124-8.321q3.014-5.372,3.014-14.151a26.765,26.765,0,0,0-2.817-12.907,22.558,22.558,0,0,0-7.534-8.255,31.873,31.873,0,0,0-10.942-4.39,62.6,62.6,0,0,0-12.906-1.31H681.235v92.771Zm247.781,0h63.813V470.531h-47.3V445.373h42.586V430.435H945.526v-22.8h44.945V392.7H929.016v92.771Zm247.784,0h63.81V470.531h-47.3V445.373h42.58V430.435h-42.58v-22.8h44.94V392.7H1176.8v92.771Zm264.29-14.938V407.636h15.07a51.918,51.918,0,0,1,13.95,1.769,30.329,30.329,0,0,1,11.01,5.5,25.114,25.114,0,0,1,7.27,9.762,35.959,35.959,0,0,1,2.62,14.414,32.347,32.347,0,0,1-2.95,14.479,26.107,26.107,0,0,1-8.05,9.7,34.827,34.827,0,0,1-11.99,5.5,58.486,58.486,0,0,1-14.61,1.769h-12.32Zm-16.51,14.938h34.59a55.374,55.374,0,0,0,17.1-2.817,49.842,49.842,0,0,0,15.86-8.517,44.246,44.246,0,0,0,11.66-14.414q4.515-8.712,4.52-20.637a49.522,49.522,0,0,0-3.93-20.507A42.047,42.047,0,0,0,1493.9,404.1a43.117,43.117,0,0,0-15.07-8.583,56.029,56.029,0,0,0-17.69-2.817h-36.56v92.771Z" transform="translate(-432 -390.344)"/>
</svg>
