<svg xmlns="http://www.w3.org/2000/svg" width="50" height="50" viewBox="0 0 50 50">
  <metadata><?xpacket begin="﻿" id="W5M0MpCehiHzreSzNTczkc9d"?>
<x:xmpmeta xmlns:x="adobe:ns:meta/" x:xmptk="Adobe XMP Core 5.6-c140 79.160451, 2017/05/06-01:08:21        ">
   <rdf:RDF xmlns:rdf="http://www.w3.org/1999/02/22-rdf-syntax-ns#">
      <rdf:Description rdf:about=""/>
   </rdf:RDF>
</x:xmpmeta>
                                                                                                    
                                                                                                    
                                                                                                    
                                                                                                    
                                                                                                    
                                                                                                    
                                                                                                    
                                                                                                    
                                                                                                    
                                                                                                    
                                                                                                    
                                                                                                    
                                                                                                    
                                                                                                    
                                                                                                    
                                                                                                    
                                                                                                    
                                                                                                    
                                                                                                    
                                                                                                    
                           
<?xpacket end="w"?></metadata>
<defs>
    <style>
      .cls-1 {
        fill: #111;
        fill-rule: evenodd;
      }
    </style>
  </defs>
  <path id="形状_76" data-name="形状 76" class="cls-1" d="M976,855.636A12.5,12.5,0,1,0,954.139,864c0.009,0.011.014,0.024,0.024,0.036a19.98,19.98,0,0,1,3.482,11.167,1.127,1.127,0,0,0,.374.839,1.1,1.1,0,0,0,.869.277l0.179-.022a4.627,4.627,0,0,0,9.162-.975,1.073,1.073,0,0,0-.011-0.114l0.348-.042a1.119,1.119,0,0,0,.981-1.116c0-4.622,1.542-8,2.86-9.5a1.176,1.176,0,0,0,.144-0.211,12.666,12.666,0,0,0,3.449-8.7h0Zm-16.171,18.305q-0.054-.819-0.169-1.631l7.815-.872q-0.095.8-.13,1.607Zm8.051-4.81-8.642.964a24.157,24.157,0,0,0-.921-2.965,12.347,12.347,0,0,0,10.114.116,18.4,18.4,0,0,0-.551,1.885h0ZM963.5,845.248a10.389,10.389,0,1,1-10.278,10.388A10.344,10.344,0,0,1,963.5,845.248h0Zm0.094,32.5a2.415,2.415,0,0,1-2.3-1.724l4.705-.56a2.422,2.422,0,0,1-2.4,2.284h0Zm0,0-6.9-21.865,4.555,2.467a1.108,1.108,0,0,0,1.357-.245l2.435-2.772,4.181,2.421a1.107,1.107,0,0,0,1.518-.417,1.132,1.132,0,0,0,.109-0.854,1.116,1.116,0,0,0-.521-0.68l-4.966-2.875a1.1,1.1,0,0,0-1.383.23l-2.453,2.792-3.781-2.049a1.107,1.107,0,0,0-1.506.46,1.13,1.13,0,0,0,.455,1.522h0Zm0,0" transform="translate(-938.5 -836.5)"/>
</svg>
