<svg xmlns="http://www.w3.org/2000/svg" width="50" height="50" viewBox="0 0 50 50">
  <metadata><?xpacket begin="﻿" id="W5M0MpCehiHzreSzNTczkc9d"?>
<x:xmpmeta xmlns:x="adobe:ns:meta/" x:xmptk="Adobe XMP Core 5.6-c140 79.160451, 2017/05/06-01:08:21        ">
   <rdf:RDF xmlns:rdf="http://www.w3.org/1999/02/22-rdf-syntax-ns#">
      <rdf:Description rdf:about=""/>
   </rdf:RDF>
</x:xmpmeta>
                                                                                                    
                                                                                                    
                                                                                                    
                                                                                                    
                                                                                                    
                                                                                                    
                                                                                                    
                                                                                                    
                                                                                                    
                                                                                                    
                                                                                                    
                                                                                                    
                                                                                                    
                                                                                                    
                                                                                                    
                                                                                                    
                                                                                                    
                                                                                                    
                                                                                                    
                                                                                                    
                           
<?xpacket end="w"?></metadata>
<defs>
    <style>
      .cls-1 {
        fill: #111;
        fill-rule: evenodd;
      }
    </style>
  </defs>
  <path id="形状_11" data-name="形状 11" class="cls-1" d="M462.66,850.133a6.667,6.667,0,0,1-4.92-2.163,3.941,3.941,0,0,0-2.958-1.426,4.018,4.018,0,0,0-2.98,1.373,6.809,6.809,0,0,1-9.778,0,4.016,4.016,0,0,0-2.98-1.373,3.927,3.927,0,0,0-2.956,1.428,6.645,6.645,0,0,1-4.9,2.161c-2.935,0-4.8-2.009-6.169-3.479l2.1-1.58c1.368,1.47,2.536,2.6,4.068,2.6a3.918,3.918,0,0,0,2.949-1.428,6.651,6.651,0,0,1,4.91-2.165,6.767,6.767,0,0,1,4.891,2.071,3.919,3.919,0,0,0,5.957,0,6.768,6.768,0,0,1,4.89-2.071,6.65,6.65,0,0,1,4.908,2.161,3.947,3.947,0,0,0,2.97,1.432c1.541,0,2.706-1.126,4.07-2.6l2.1,1.579c-1.7,1.835-3.451,3.48-6.174,3.48h0Zm0,8.139a6.661,6.661,0,0,1-4.92-2.167,3.944,3.944,0,0,0-2.958-1.425,4.021,4.021,0,0,0-2.981,1.37,6.818,6.818,0,0,1-9.776,0,4.021,4.021,0,0,0-2.981-1.37,3.927,3.927,0,0,0-2.956,1.428,6.639,6.639,0,0,1-4.9,2.164c-2.936,0-4.805-2.011-6.171-3.481l2.1-1.58c1.367,1.469,2.535,2.6,4.067,2.6a3.921,3.921,0,0,0,2.949-1.428,6.65,6.65,0,0,1,4.91-2.164,6.764,6.764,0,0,1,4.889,2.066,3.926,3.926,0,0,0,5.96,0,6.769,6.769,0,0,1,4.889-2.064,6.643,6.643,0,0,1,4.908,2.162,3.962,3.962,0,0,0,2.97,1.43c1.541,0,2.708-1.125,4.07-2.6l2.1,1.579c-1.7,1.835-3.451,3.481-6.174,3.481h0Zm0,8.134a6.669,6.669,0,0,1-4.922-2.165,3.935,3.935,0,0,0-2.956-1.427,4.017,4.017,0,0,0-2.98,1.371,6.811,6.811,0,0,1-9.778,0,4.009,4.009,0,0,0-2.98-1.371,3.921,3.921,0,0,0-2.955,1.431,6.645,6.645,0,0,1-4.9,2.161c-2.933,0-4.8-2.012-6.169-3.481l2.1-1.581c1.369,1.47,2.538,2.6,4.068,2.6a3.92,3.92,0,0,0,2.949-1.427,6.642,6.642,0,0,1,4.91-2.167,6.762,6.762,0,0,1,4.891,2.07,3.926,3.926,0,0,0,5.957,0,6.758,6.758,0,0,1,4.89-2.07,6.663,6.663,0,0,1,4.91,2.159,3.939,3.939,0,0,0,2.968,1.435c1.54,0,2.706-1.124,4.07-2.6l2.1,1.579c-1.363,1.469-3.229,3.481-6.174,3.481h0ZM448,875v-6h-2v6h-5l6,5,6-5h-5Z" transform="translate(-421.922 -837.031)"/>
</svg>
