<svg xmlns="http://www.w3.org/2000/svg" width="50" height="50" viewBox="0 0 50 50">
  <metadata><?xpacket begin="﻿" id="W5M0MpCehiHzreSzNTczkc9d"?>
<x:xmpmeta xmlns:x="adobe:ns:meta/" x:xmptk="Adobe XMP Core 5.6-c140 79.160451, 2017/05/06-01:08:21        ">
   <rdf:RDF xmlns:rdf="http://www.w3.org/1999/02/22-rdf-syntax-ns#">
      <rdf:Description rdf:about=""/>
   </rdf:RDF>
</x:xmpmeta>
                                                                                                    
                                                                                                    
                                                                                                    
                                                                                                    
                                                                                                    
                                                                                                    
                                                                                                    
                                                                                                    
                                                                                                    
                                                                                                    
                                                                                                    
                                                                                                    
                                                                                                    
                                                                                                    
                                                                                                    
                                                                                                    
                                                                                                    
                                                                                                    
                                                                                                    
                                                                                                    
                           
<?xpacket end="w"?></metadata>
<defs>
    <style>
      .cls-1 {
        fill: #111;
        fill-rule: evenodd;
      }
    </style>
  </defs>
  <path id="形状_75" data-name="形状 75" class="cls-1" d="M1198.66,850.133a6.664,6.664,0,0,1-4.92-2.163,3.949,3.949,0,0,0-2.96-1.426,4.018,4.018,0,0,0-2.98,1.373,6.811,6.811,0,0,1-9.78,0,4.018,4.018,0,0,0-2.98-1.373,3.926,3.926,0,0,0-2.95,1.428,6.664,6.664,0,0,1-4.91,2.161c-2.93,0-4.8-2.009-6.16-3.479l2.1-1.58c1.36,1.47,2.53,2.6,4.06,2.6a3.91,3.91,0,0,0,2.95-1.428,6.658,6.658,0,0,1,4.91-2.165,6.745,6.745,0,0,1,4.89,2.071,3.922,3.922,0,0,0,5.96,0,6.783,6.783,0,0,1,4.89-2.071,6.664,6.664,0,0,1,4.91,2.161,3.942,3.942,0,0,0,2.97,1.432c1.54,0,2.71-1.126,4.07-2.6l2.1,1.579c-1.7,1.835-3.45,3.48-6.17,3.48h0Zm0,8.139a6.658,6.658,0,0,1-4.92-2.167,3.951,3.951,0,0,0-2.96-1.425,4.023,4.023,0,0,0-2.98,1.37,6.811,6.811,0,0,1-9.77,0,4.028,4.028,0,0,0-2.99-1.37,3.923,3.923,0,0,0-2.95,1.428,6.658,6.658,0,0,1-4.91,2.164c-2.93,0-4.8-2.011-6.17-3.481l2.11-1.58c1.36,1.469,2.53,2.6,4.06,2.6a3.913,3.913,0,0,0,2.95-1.428,6.658,6.658,0,0,1,4.91-2.164,6.747,6.747,0,0,1,4.89,2.066,3.926,3.926,0,0,0,5.96,0,6.785,6.785,0,0,1,4.89-2.064,6.657,6.657,0,0,1,4.91,2.162,3.957,3.957,0,0,0,2.97,1.43c1.54,0,2.71-1.125,4.07-2.6l2.1,1.579c-1.7,1.835-3.45,3.481-6.17,3.481h0ZM1169,880h28v-2h-28v2Zm15-12v-9h-2v9h-7c2.85,2.5,5.17,4.476,8,6.975,2.84-2.491,5.15-4.476,8-6.975h-7Z" transform="translate(-1157.92 -837.031)"/>
</svg>
