<?xml version="1.0" encoding="UTF-8"?>
<svg width="50px" height="50px" viewBox="0 0 50 50" version="1.1" xmlns="http://www.w3.org/2000/svg" xmlns:xlink="http://www.w3.org/1999/xlink">
    <!-- Generator: Sketch 50.2 (55047) - http://www.bohemiancoding.com/sketch -->
    <title>资源 1 copy 2</title>
    <desc>Created with Sketch.</desc>
    <defs></defs>
    <g id="pc端" stroke="none" stroke-width="1" fill="none" fill-rule="evenodd">
        <g id="Artboard-7-Copy" transform="translate(-586.000000, -682.000000)" fill="#FFFFFF" fill-rule="nonzero">
            <g id="资源-1-copy" transform="translate(590.000000, 698.000000)">
                <path d="M39.3898175,10.0763632 C38.7551413,9.54108687 38.1194399,9.00702942 37.4827131,8.47419088 C38.097908,7.96015841 38.7248942,7.43254378 39.3898175,6.87097375 L41.5394112,5.0603675 C41.8874088,4.76922123 42.0565398,4.31101346 41.983094,3.85834663 C41.9096483,3.40567979 41.604784,3.02732477 41.1833406,2.86580423 C40.7618972,2.70428369 40.2879019,2.78413645 39.9399043,3.07528275 L37.7846713,4.89372486 C37.0201207,5.53974806 36.2535194,6.18402995 35.4848675,6.82657054 C30.020911,2.42020479 26.0175298,0.178626191 18.3768085,0.00467007982 C11.5091821,-0.128017164 4.95120391,2.5716981 0.338779735,7.47120069 C0.089820413,7.74015701 -0.031347474,8.10655106 0.00708712253,8.47419088 C-0.0316282983,8.84186209 0.0895782183,9.20837296 0.338779735,9.47718107 C4.82765225,14.2439964 11.1733882,16.9473684 17.823133,16.9473684 C18.0076915,16.9473684 18.19225,16.9473684 18.3773211,16.9410997 C26.0159918,16.7666212 30.020911,14.5250426 35.4823042,10.1202441 C36.2097722,10.7251725 36.9659493,11.363534 37.782108,12.0530897 L39.9378536,13.8694423 C40.2858513,14.1605886 40.7598465,14.2404413 41.1812899,14.0789208 C41.6027333,13.9174003 41.9075976,13.5390452 41.9810434,13.0863784 C42.0544891,12.6337116 41.8853582,12.1755038 41.5373605,11.8843575 L39.3898175,10.0763632 Z M8.80693828,8.4731461 C8.80693828,10.0617363 7.94515268,11.4032357 6.91623912,11.4434598 C5.49133725,10.6138494 4.16651004,9.6173283 2.96873817,8.47419088 C4.16808117,7.32993218 5.4950367,6.33301257 6.92239107,5.50387723 C7.947716,5.54880283 8.80796361,6.88664547 8.80796361,8.4731461 L8.80693828,8.4731461 Z M18.3214409,14.3761613 C15.3491706,14.4500311 12.3929154,13.9109242 9.6302742,12.7912278 C10.6555991,11.7746555 11.3266743,10.2262894 11.3266743,8.4731461 C11.3266743,6.72000283 10.6602131,5.17738303 9.63488816,4.1597659 C12.3974457,3.04577467 15.3506047,2.50549371 18.3209283,2.57065331 C25.0332179,2.72423619 28.4531892,4.47737946 33.4644647,8.47366849 C28.4531892,12.4694351 25.0332179,14.2199665 18.3214409,14.3766837 L18.3214409,14.3761613 Z" id="Shape"></path>
            </g>
        </g>
    </g>
</svg>